<?xml version="1.0" standalone="no"?>
<!DOCTYPE svg PUBLIC "-//W3C//DTD SVG 20010904//EN"
 "http://www.w3.org/TR/2001/REC-SVG-20010904/DTD/svg10.dtd">
<svg version="1.0" xmlns="http://www.w3.org/2000/svg"
 width="857.000000pt" height="869.000000pt" viewBox="0 0 857.000000 869.000000"
 preserveAspectRatio="xMidYMid meet">
<metadata>
Created by potrace 1.16, written by Peter Selinger 2001-2019
</metadata>
<g transform="translate(0.000000,869.000000) scale(0.100000,-0.100000)"
fill="#000000" stroke="none">
<path d="M0 8054 l0 -637 20 26 c11 14 33 28 49 32 16 3 37 17 46 31 9 14 20
22 25 19 6 -4 10 0 10 7 0 7 10 18 22 23 13 6 29 22 36 38 7 15 17 27 23 27 5
0 9 11 9 25 0 14 4 25 9 25 5 0 11 14 15 30 3 17 12 30 20 30 21 0 30 -18 17
-34 -6 -7 -8 -15 -5 -18 3 -3 -4 -23 -15 -44 -25 -46 -27 -81 -6 -104 14 -15
14 -18 0 -30 -12 -10 -18 -10 -29 0 -12 9 -25 4 -68 -27 -29 -21 -65 -44 -80
-51 -16 -6 -28 -19 -28 -28 0 -10 -6 -14 -14 -11 -17 7 -36 -11 -36 -35 0 -10
-4 -18 -10 -18 -7 0 -10 -181 -10 -522 0 -471 2 -523 17 -540 15 -17 15 -18 0
-18 -15 0 -17 -15 -17 -120 0 -109 7 -139 25 -110 9 15 77 41 92 36 7 -3 13
-12 13 -21 0 -8 6 -15 14 -15 15 0 38 -114 25 -127 -4 -5 -9 -21 -11 -38 -2
-23 -9 -31 -26 -33 -21 -3 -22 -1 -13 17 16 28 14 38 -9 44 -16 4 -19 11 -14
36 5 24 3 31 -9 31 -8 0 -17 -7 -21 -15 -3 -8 -14 -15 -24 -15 -11 0 -25 -6
-31 -14 -16 -19 -10 -102 6 -98 8 1 13 -8 13 -23 0 -22 3 -24 19 -15 27 14 27
14 41 -20 7 -16 19 -30 27 -30 9 0 13 -7 10 -17 -3 -10 -11 -46 -18 -81 -13
-62 -13 -63 -61 -80 l-48 -17 0 -210 1 -210 22 37 c15 27 34 42 62 51 39 13
40 13 92 -27 52 -40 52 -41 36 -66 -31 -49 -58 -71 -101 -82 -38 -9 -43 -13
-37 -32 20 -61 17 -82 -13 -111 -28 -26 -30 -33 -31 -106 -1 -71 1 -78 24 -93
14 -9 25 -23 25 -31 0 -11 5 -12 26 -5 42 16 74 3 74 -31 0 -29 -7 -38 -67
-85 -22 -17 -33 -20 -35 -12 -4 10 -8 10 -21 -1 -9 -7 -26 -11 -37 -8 -19 5
-20 0 -20 -121 0 -133 8 -160 52 -175 10 -4 18 -14 18 -24 0 -10 11 -29 25
-43 70 -70 141 -130 156 -130 5 0 6 20 3 44 -4 27 -2 46 5 50 16 10 14 26 -4
26 -21 0 -19 39 3 47 9 4 27 17 39 30 12 13 32 23 44 23 12 0 39 7 60 17 30
13 37 21 36 41 -2 19 4 27 26 33 15 4 27 3 27 -2 0 -10 40 -12 64 -3 19 7 22
35 4 31 -9 -1 -13 12 -13 40 -1 31 -6 47 -20 57 -16 12 -18 18 -9 33 15 24 39
28 75 13 31 -13 39 -30 14 -30 -8 0 -15 -4 -15 -8 0 -5 14 -7 30 -4 17 2 30 8
30 13 0 17 35 9 49 -10 8 -11 20 -17 28 -14 19 7 16 20 -7 26 -11 3 -20 10
-20 16 0 39 96 9 102 -31 3 -20 9 -23 43 -22 31 0 42 5 50 22 5 12 18 25 27
28 10 3 18 10 18 16 0 16 53 68 70 68 9 0 26 -7 38 -16 19 -13 26 -13 38 -3 9
7 13 21 11 31 -6 22 12 36 23 18 10 -16 67 -23 75 -10 3 6 19 10 35 10 22 0
28 -4 24 -15 -3 -8 -15 -17 -25 -20 -11 -4 -24 -18 -30 -32 -11 -30 -35 -25
-31 7 2 22 1 22 -15 8 -10 -9 -33 -19 -51 -23 -17 -3 -50 -21 -72 -40 -21 -18
-55 -36 -75 -39 -22 -4 -41 -16 -52 -32 -15 -24 -15 -26 11 -52 30 -33 33 -55
8 -80 -9 -10 -25 -35 -35 -56 -15 -31 -20 -36 -32 -26 -16 13 -18 11 -29 -42
-7 -30 4 -36 26 -14 8 7 30 21 48 31 19 10 62 43 95 74 34 31 99 84 145 119
47 34 103 78 125 96 110 93 178 146 186 146 5 0 9 14 9 30 0 20 16 54 44 95
24 36 52 86 62 112 10 27 33 64 51 83 18 19 36 46 40 60 3 14 14 33 24 43 18
17 19 16 19 -40 0 -85 -15 -128 -55 -159 -32 -24 -35 -31 -35 -81 0 -37 4 -55
14 -59 20 -8 102 42 126 76 24 34 25 58 4 88 -13 19 -15 44 -13 129 l4 106
-35 12 c-31 11 -35 16 -37 51 -1 21 -2 45 -2 52 -1 13 -41 17 -41 3 0 -10 -27
-8 -52 3 -29 13 -30 42 -5 88 14 23 28 54 32 68 6 24 5 24 -24 -7 -17 -18 -31
-34 -31 -36 0 -3 -14 -19 -30 -37 -17 -18 -30 -38 -30 -45 0 -23 -27 -24 -49
-1 -23 24 -26 53 -11 105 11 41 56 91 81 91 12 0 23 16 34 48 9 26 21 58 26
71 12 29 11 29 -53 55 -55 22 -70 48 -31 51 27 2 27 2 41 40 11 30 11 30 9
-10 -2 -38 -1 -40 30 -43 25 -2 34 2 44 20 l13 23 6 -25 c4 -19 13 -25 33 -25
23 -1 26 2 21 25 -3 14 -2 21 3 15 4 -5 18 -11 31 -13 19 -3 22 1 22 27 0 34
-43 75 -71 68 -11 -3 -22 6 -33 30 -20 43 -20 53 1 53 9 0 25 7 35 17 17 15
18 15 18 0 0 -14 11 -17 60 -17 55 0 79 12 48 23 -9 3 -5 14 13 33 15 16 32
39 38 52 11 21 17 22 71 18 43 -4 61 -2 70 9 7 8 20 15 29 15 13 0 17 10 17
43 1 23 5 65 9 92 l7 50 -38 -75 c-45 -85 -71 -105 -61 -45 6 36 6 36 -11 17
-61 -72 -56 -68 -60 -49 -2 10 3 26 11 35 8 9 29 47 46 84 17 37 36 70 42 74
6 3 22 30 35 59 12 29 32 62 44 73 13 12 25 42 32 83 l11 64 12 -36 c11 -29
10 -57 -1 -145 -7 -60 -19 -152 -25 -204 -7 -61 -17 -98 -25 -103 -8 -5 -12
-13 -9 -18 4 -5 11 -7 16 -4 5 4 9 2 9 -4 0 -11 79 -36 87 -27 3 3 -6 8 -21
12 -51 12 -23 34 45 34 26 0 37 4 34 13 -3 6 15 92 40 190 48 189 51 216 34
249 -7 13 -8 42 -3 81 7 61 7 61 19 32 7 -16 11 -35 8 -42 -3 -7 -3 -13 1 -13
9 0 29 43 37 80 7 34 7 34 8 5 1 -33 -42 -279 -59 -335 -5 -19 -10 -48 -9 -65
l1 -30 9 30 c6 17 16 59 24 95 33 153 44 201 54 217 9 17 10 17 17 0 9 -24 -9
-149 -46 -323 -52 -242 -38 -225 62 71 33 99 66 183 73 187 14 8 27 41 45 111
13 50 24 64 35 47 7 -12 -12 -179 -26 -225 -8 -24 -6 -32 8 -43 17 -12 17 -14
-6 -31 -21 -16 -26 -32 -37 -122 -7 -57 -11 -106 -9 -107 5 -6 41 68 55 113
17 56 26 62 43 29 14 -27 15 -27 21 -6 8 24 21 28 31 12 7 -12 -14 -49 -46
-81 -23 -23 -25 -55 -2 -63 26 -10 15 -34 150 319 21 55 39 92 41 82 6 -28
-17 -154 -38 -215 -11 -31 -20 -72 -20 -91 0 -19 -12 -61 -27 -94 -28 -58 -28
-59 -65 -54 -35 5 -38 3 -38 -20 0 -20 -4 -24 -17 -18 -49 20 -51 19 -69 -41
-16 -55 -16 -58 2 -71 11 -8 30 -17 44 -20 14 -3 40 -14 58 -25 18 -11 42 -18
53 -15 14 4 23 -2 34 -24 9 -16 20 -29 25 -29 14 0 12 46 -2 62 -7 7 -14 27
-16 43 -2 17 -8 32 -13 33 -14 5 -11 29 5 35 13 5 72 149 97 237 18 61 66 101
53 43 -7 -30 -87 -239 -110 -286 -12 -25 -11 -33 8 -73 25 -49 38 -54 68 -22
16 17 23 19 32 10 7 -7 8 -12 2 -12 -6 0 -16 -12 -23 -26 -10 -23 -10 -25 9
-19 14 5 20 2 20 -9 0 -9 5 -16 11 -16 6 0 8 8 4 19 -4 12 4 29 24 50 27 29
42 54 46 76 0 6 4 18 8 28 4 9 9 24 12 32 2 8 9 15 15 15 5 0 10 -7 10 -15 0
-9 9 -15 25 -15 14 0 25 -4 25 -10 0 -5 13 -10 29 -10 21 0 28 -5 27 -17 0
-10 6 -18 14 -18 16 0 17 -21 5 -116 -5 -38 -4 -59 4 -63 6 -4 11 -17 11 -29
0 -20 -1 -20 -13 -3 -13 17 -14 17 -30 1 -24 -23 -21 -35 9 -35 31 0 30 -8
-32 -139 -24 -51 -44 -104 -44 -118 0 -31 58 -143 79 -151 9 -3 25 8 43 28 20
25 28 29 28 17 0 -22 29 -22 45 0 19 26 50 9 144 -77 28 -26 76 -125 87 -178
3 -17 14 -39 24 -49 30 -33 39 -58 41 -118 2 -45 6 -59 20 -62 10 -3 15 -11
12 -19 -5 -13 12 -14 113 -9 138 7 161 11 193 32 19 12 21 17 10 24 -18 11
-104 11 -149 0 -19 -5 -53 -12 -75 -15 -40 -5 -40 -5 -63 44 -13 27 -21 54
-17 61 4 6 2 28 -5 49 -11 34 -10 40 7 56 38 38 54 47 96 55 35 6 45 4 65 -14
12 -11 22 -28 22 -38 0 -39 24 -68 71 -88 26 -12 52 -21 58 -21 6 0 14 -18 17
-39 6 -36 9 -39 40 -43 46 -5 49 0 19 32 -17 18 -27 41 -30 69 -2 24 -8 48
-14 55 -8 9 -7 13 2 13 6 0 20 4 30 8 13 6 20 0 31 -27 8 -19 22 -40 30 -48 9
-7 16 -19 16 -27 0 -18 26 -44 73 -72 21 -13 37 -30 37 -41 0 -20 4 -20 -81 7
-19 5 -42 -20 -37 -43 3 -18 161 -74 213 -76 17 0 36 -6 44 -12 11 -8 15 -8
18 2 3 6 23 15 45 18 l40 7 -5 44 c-4 37 -1 48 18 67 52 52 105 55 177 9 21
-12 46 -23 57 -23 11 0 32 -5 46 -12 22 -10 25 -17 25 -61 0 -38 -5 -53 -22
-68 -13 -10 -28 -18 -34 -19 -17 0 -65 -41 -59 -50 3 -4 -3 -6 -14 -3 -12 3
-20 -2 -23 -14 -6 -24 1 -45 14 -37 5 3 12 -4 15 -15 3 -13 31 -36 72 -59 36
-20 75 -42 86 -49 11 -7 27 -15 35 -19 8 -4 23 -14 32 -22 14 -12 20 -12 33
-2 8 7 15 18 15 25 0 6 11 25 25 41 27 31 31 44 14 44 -5 0 -9 8 -8 17 1 10 0
25 -1 33 -1 12 -3 12 -8 -2 -6 -16 -9 -16 -39 -1 -34 16 -46 54 -22 69 6 3 9
19 5 35 -6 33 6 45 24 24 7 -8 24 -15 39 -15 35 0 52 -12 54 -38 1 -12 5 -22
9 -22 14 0 48 39 48 56 0 8 4 13 9 10 5 -4 20 7 33 23 68 84 105 135 166 226
25 39 52 76 59 83 7 7 13 17 13 21 0 9 -95 -6 -120 -18 -8 -4 -31 -7 -50 -5
-19 2 -60 5 -90 7 -55 5 -150 48 -150 68 0 6 -14 23 -31 39 -27 24 -32 37 -36
88 -3 37 0 63 6 67 21 12 12 43 -11 43 -50 0 -79 10 -105 36 -38 39 -39 114
-1 170 22 32 25 43 17 65 -6 14 -10 28 -9 31 1 2 -3 6 -9 8 -6 2 -11 -5 -11
-15 0 -10 -6 -25 -13 -34 -17 -22 -71 -39 -88 -28 -8 5 -21 6 -31 3 -9 -2 -19
0 -23 6 -3 5 -15 10 -25 10 -11 0 -24 9 -30 20 -6 11 -17 20 -25 20 -28 0 -13
96 16 105 11 4 19 12 19 20 0 18 23 25 78 25 57 0 64 -5 87 -52 9 -21 20 -38
24 -38 3 0 14 14 24 32 18 31 18 32 -7 52 -31 27 -60 83 -46 91 6 3 10 14 10
23 1 23 49 68 82 76 38 9 72 -7 123 -59 25 -25 52 -45 60 -45 18 0 19 -14 4
-41 -9 -17 -5 -28 25 -66 19 -25 37 -50 38 -55 6 -18 49 3 59 29 8 21 4 30
-26 61 -37 39 -47 85 -20 96 18 6 45 -2 45 -15 0 -5 9 -4 19 3 11 7 18 15 15
19 -2 4 6 19 18 33 27 30 108 49 108 24 0 -8 13 -27 30 -43 17 -16 30 -38 30
-50 0 -13 10 -27 25 -35 25 -13 35 -40 14 -40 -5 0 -7 -5 -4 -10 4 -6 2 -17
-4 -24 -8 -9 -6 -24 6 -54 18 -46 33 -55 33 -19 0 30 65 96 101 104 36 7 36
17 3 46 -14 12 -37 41 -51 65 -21 36 -25 52 -21 101 3 50 9 63 34 84 16 15 34
27 40 27 6 0 23 9 38 21 23 18 35 20 85 14 33 -4 77 -13 98 -20 34 -12 38 -17
41 -52 2 -26 11 -43 28 -56 23 -17 26 -17 54 -1 27 17 30 17 48 1 10 -9 23
-17 29 -17 6 0 18 -12 27 -26 l17 -25 17 23 c22 31 38 55 62 100 11 20 33 51
50 70 17 18 58 74 91 123 32 50 62 95 67 101 18 26 33 51 42 72 5 12 14 22 20
22 5 0 9 3 7 8 -1 4 14 28 34 52 52 66 68 95 60 109 -4 6 -5 25 -3 42 3 19 8
26 12 19 5 -8 9 -5 13 9 3 12 0 24 -5 28 -7 4 -8 1 -3 -7 5 -8 3 -11 -6 -8 -8
3 -16 13 -17 23 -3 10 0 15 7 11 7 -5 9 -1 5 8 -3 9 -1 16 5 16 6 0 11 9 11
20 0 11 6 23 13 26 8 3 14 10 15 17 5 57 27 110 53 129 16 12 29 28 29 36 0
19 -89 102 -109 102 -8 0 -23 7 -33 17 -17 15 -18 14 -18 -16 0 -22 -4 -31
-12 -28 -11 3 -13 20 -7 72 0 6 -8 35 -19 65 -26 70 -64 97 -199 139 -57 18
-103 36 -103 41 0 29 -133 120 -145 100 -3 -6 -3 -10 2 -11 4 0 -1 -4 -12 -8
-18 -7 -15 -11 22 -37 23 -16 42 -34 43 -40 0 -5 24 -39 53 -75 63 -77 119
-155 134 -189 39 -83 64 -156 61 -179 -3 -20 -9 -10 -28 46 -13 40 -34 85 -46
100 l-23 28 8 -36 c5 -20 23 -69 41 -108 32 -69 34 -109 3 -63 -18 25 -33 29
-33 7 0 -35 -21 -11 -36 43 -9 31 -25 73 -35 92 -11 19 -19 42 -19 52 0 19
-17 32 -40 33 -23 0 -50 -40 -50 -75 0 -32 -1 -32 -37 -26 -21 4 -48 7 -59 8
l-22 0 20 20 c17 17 18 22 7 29 -10 6 -13 29 -11 86 1 43 -2 87 -7 98 -6 11
-20 44 -32 73 -12 29 -30 57 -40 63 -11 5 -19 17 -19 25 0 19 -103 128 -144
153 -17 10 -48 21 -68 24 -33 5 -38 3 -38 -13 0 -10 4 -22 10 -25 9 -6 50 -87
63 -126 3 -9 1 -22 -4 -30 -8 -12 -11 -11 -19 2 -5 10 -55 44 -109 78 -55 34
-113 78 -130 98 l-31 38 0 -45 c1 -25 5 -64 9 -87 6 -32 5 -43 -4 -43 -7 0
-18 37 -28 100 -20 119 -32 149 -57 143 -10 -3 -21 0 -24 6 -21 33 -161 -23
-185 -73 -12 -26 -11 -34 8 -73 15 -31 26 -43 36 -39 9 3 29 -10 50 -32 35
-37 43 -52 27 -52 -5 0 -18 -9 -30 -20 -17 -16 -20 -27 -15 -57 7 -44 29 -74
48 -67 9 4 12 0 9 -13 -3 -10 4 -28 15 -39 16 -17 18 -28 12 -56 -5 -21 -3
-74 5 -129 15 -110 8 -128 -41 -109 -21 8 -25 14 -17 22 18 18 15 28 -8 28
-18 0 -18 -2 -4 -42 10 -26 17 -85 19 -151 2 -61 8 -114 14 -120 13 -13 1 -29
104 144 86 146 87 147 87 215 0 38 5 76 10 84 8 12 10 11 10 -8 0 -19 3 -21
19 -13 16 9 22 3 47 -47 16 -31 32 -58 37 -60 4 -2 7 -12 7 -23 0 -10 5 -18
11 -16 6 1 25 -19 41 -45 21 -35 30 -60 30 -92 0 -48 21 -80 32 -50 11 30 43
-25 72 -126 28 -98 89 -245 111 -268 11 -11 13 -10 13 7 0 12 4 21 9 21 5 0
12 12 16 28 3 15 12 41 20 57 52 123 76 179 100 240 27 72 57 135 63 135 2 0
12 -5 23 -11 16 -8 25 -7 40 7 29 26 32 12 9 -47 -22 -57 -23 -60 -63 -149
-14 -30 -33 -74 -42 -98 -12 -30 -27 -47 -49 -57 -57 -26 -76 -50 -83 -104 -5
-41 -9 -51 -24 -51 -11 0 -19 -4 -19 -10 0 -18 -27 -10 -52 15 -13 13 -33 41
-44 62 -10 21 -24 45 -31 53 -11 15 -42 92 -87 215 -11 33 -24 62 -28 63 -5 2
-8 10 -8 17 0 16 -38 45 -58 45 -7 0 -31 -38 -53 -85 -21 -47 -42 -85 -47 -85
-4 0 -15 12 -24 27 -15 26 -17 26 -24 9 -5 -14 0 -25 19 -40 l26 -21 -43 -100
c-23 -55 -49 -101 -57 -103 -20 -3 -79 35 -79 52 0 25 94 218 133 273 43 62
45 72 14 101 l-23 22 -30 -43 c-16 -23 -36 -57 -43 -74 -7 -18 -17 -33 -21
-33 -15 0 -59 -90 -65 -133 -4 -23 -15 -51 -25 -62 -35 -38 -53 -102 -47 -165
5 -60 -3 -80 -33 -80 -21 0 -50 32 -86 95 -15 28 -42 66 -60 86 -17 20 -37 54
-44 75 -7 22 -26 54 -41 72 -16 18 -29 40 -30 50 0 9 -3 26 -5 37 -3 11 -10
58 -16 105 l-10 86 35 69 c57 112 63 196 19 231 -17 13 -18 35 -3 157 7 54 9
108 5 120 -4 12 -6 36 -5 53 3 37 0 39 -56 49 -41 6 -43 6 -43 -19 0 -14 -5
-26 -11 -26 -21 0 -38 -34 -39 -75 0 -39 0 -39 16 -17 15 22 17 22 34 7 11
-10 22 -30 25 -46 4 -16 11 -27 16 -23 5 3 9 -1 9 -10 0 -15 -55 -66 -72 -66
-14 0 -1 -89 18 -118 9 -13 25 -27 36 -31 18 -6 19 -9 5 -14 -16 -6 -57 -80
-57 -103 0 -15 -18 -50 -48 -92 -14 -19 -22 -43 -21 -60 2 -15 -2 -41 -8 -57
-6 -17 -18 -57 -27 -90 -33 -119 -49 -165 -69 -185 -17 -20 -20 -20 -37 -5
-20 18 -26 13 -57 -50 -23 -46 -34 -86 -38 -132 -1 -17 -18 -59 -38 -93 -21
-34 -37 -65 -37 -70 0 -5 -4 -12 -10 -15 -23 -14 -7 36 31 99 41 67 41 69 26
105 -8 20 -21 51 -27 68 -7 18 -17 30 -23 26 -6 -3 -7 -1 -3 5 4 6 8 67 10
134 2 68 11 150 19 183 9 33 19 91 23 128 6 56 13 75 40 110 19 23 37 57 40
75 3 17 10 32 14 32 4 0 10 12 13 28 3 15 8 43 12 62 4 19 11 43 16 52 5 9 6
24 3 32 -3 9 -2 16 3 16 11 0 33 58 33 88 0 28 -16 28 -31 1 -17 -32 -36 -8
-21 26 14 31 5 105 -13 105 -7 0 -16 10 -20 23 -6 18 -8 19 -12 5 -2 -9 -14
-18 -26 -20 -15 -2 -26 -16 -38 -48 -12 -34 -18 -40 -21 -25 -3 13 -7 5 -12
-23 -5 -28 -4 -47 4 -57 21 -26 -16 -130 -86 -242 l-14 -23 95 0 c76 0 93 -3
84 -12 -8 -9 -45 -14 -106 -14 -79 -2 -97 -5 -109 -20 -8 -11 -59 -109 -114
-219 -100 -202 -178 -396 -188 -469 -3 -23 -15 -48 -28 -60 -21 -20 -71 -140
-184 -442 -50 -135 -52 -143 -36 -165 l16 -23 0 26 c0 15 22 74 49 130 85 179
111 237 111 246 0 6 7 25 15 43 l16 34 -6 -39 c-9 -54 -56 -186 -99 -279 -20
-42 -36 -82 -36 -88 0 -6 -8 -23 -18 -37 -29 -44 -52 -101 -42 -107 5 -3 11
-1 15 5 3 5 13 10 21 10 9 0 12 -5 8 -12 -5 -8 3 -9 31 -5 35 6 37 5 32 -18
-3 -21 0 -25 19 -25 13 0 29 6 36 13 7 8 20 12 29 10 8 -3 32 5 53 16 20 12
51 21 69 21 l32 0 -30 -26 c-21 -18 -24 -24 -10 -19 41 14 175 27 210 21 68
-13 21 -31 -105 -40 -25 -1 -54 -7 -64 -11 -13 -6 -21 -4 -24 3 -2 7 -16 12
-30 12 -26 -1 -26 -1 -7 -16 11 -8 31 -14 45 -13 14 0 57 1 96 0 68 -1 71 -2
67 -24 -5 -27 21 -54 65 -66 27 -8 32 -7 39 12 4 12 8 29 8 37 0 8 10 16 23
18 12 2 22 -1 22 -7 0 -6 12 -11 26 -11 14 0 40 -11 57 -24 18 -13 44 -26 59
-30 15 -3 36 -20 48 -36 16 -22 17 -28 6 -24 -11 4 -16 0 -16 -11 0 -13 6 -16
25 -11 39 10 48 -1 28 -34 -14 -24 -14 -31 -3 -45 12 -14 14 -13 27 5 12 17
21 20 45 15 21 -5 33 -3 39 6 6 10 8 8 7 -6 0 -11 7 -36 15 -56 9 -20 13 -39
10 -43 -4 -3 -3 -6 2 -6 12 0 34 33 35 52 0 10 9 22 20 28 17 9 22 7 31 -16 5
-15 8 -33 5 -40 -2 -6 3 -22 12 -35 9 -13 15 -39 13 -64 -1 -35 5 -51 34 -90
34 -44 35 -49 21 -64 -13 -13 -20 -13 -36 -3 -30 19 -42 15 -34 -10 3 -13 11
-24 15 -26 5 -2 9 -9 9 -16 0 -36 -60 5 -178 120 -111 107 -147 139 -233 202
-14 11 -30 11 -81 2 -69 -13 -98 -36 -98 -77 0 -13 -5 -34 -11 -45 -9 -17 -17
-19 -52 -14 -23 4 -51 15 -62 25 -11 10 -56 40 -100 67 -44 26 -105 68 -135
94 -73 62 -121 90 -155 90 -40 0 -105 21 -105 35 0 6 5 16 12 23 9 9 3 12 -28
12 -50 0 -72 -28 -50 -63 25 -38 -2 -58 -58 -42 -19 5 -31 4 -36 -5 -12 -20
-28 -3 -23 24 4 20 0 26 -21 32 -35 8 -34 17 19 194 8 25 17 59 20 77 9 48 54
135 65 128 12 -8 13 -38 2 -51 -20 -21 -85 -274 -72 -274 18 0 71 78 85 124 8
26 20 87 26 135 7 47 15 90 19 94 4 5 13 -14 20 -42 7 -28 15 -49 19 -46 5 2
39 82 76 177 38 95 106 265 153 378 46 113 88 221 94 240 5 19 21 50 34 69 13
20 24 39 24 44 0 7 17 47 56 134 18 40 18 40 -11 47 -17 4 -31 1 -41 -9 -9 -8
-24 -15 -35 -15 -10 0 -19 -4 -19 -10 0 -5 -7 -7 -15 -4 -10 4 -15 0 -15 -15
0 -12 -4 -20 -9 -18 -16 4 -72 -66 -61 -77 26 -26 0 -159 -36 -183 -18 -11
-22 -21 -18 -38 9 -37 -33 -104 -49 -77 -3 4 6 61 19 127 19 97 21 125 12 148
-22 56 22 276 64 313 26 24 63 81 73 114 4 14 25 61 46 105 21 44 41 92 44
108 4 15 18 36 31 46 13 10 24 29 24 41 0 12 15 36 32 53 60 59 113 137 120
175 3 20 8 43 10 51 6 25 -22 23 -31 -2 -6 -14 -20 -28 -33 -32 -13 -4 -42
-23 -65 -41 -23 -19 -46 -34 -51 -34 -5 0 -21 -11 -36 -25 -14 -13 -26 -22
-26 -19 0 2 -13 -2 -30 -11 -16 -8 -32 -14 -34 -13 -9 5 -35 -36 -36 -54 0
-10 -6 -18 -13 -18 -8 0 -22 -9 -32 -20 -10 -11 -15 -20 -10 -20 4 0 2 -6 -4
-13 -6 -8 -8 -17 -4 -20 3 -4 1 -7 -5 -7 -6 0 -13 -8 -16 -18 -3 -10 -19 -23
-36 -29 -16 -6 -30 -18 -30 -26 0 -10 -8 -13 -25 -9 -14 2 -32 -1 -40 -8 -8
-6 -49 -14 -92 -16 -66 -3 -85 0 -123 19 -58 29 -64 57 -20 102 18 19 46 39
61 46 16 6 29 15 29 20 0 4 9 10 20 14 10 3 29 22 41 41 l21 35 -23 25 c-12
13 -20 26 -18 28 2 3 30 6 63 8 48 2 60 0 70 -15 9 -16 6 -23 -24 -45 -19 -15
-53 -45 -76 -68 -22 -22 -52 -44 -67 -48 -35 -8 -62 -49 -49 -72 6 -11 11 -13
16 -5 4 6 2 11 -5 11 -7 0 -10 2 -7 5 7 7 58 -15 77 -33 19 -19 62 -7 122 34
28 19 55 34 61 34 5 0 6 5 3 10 -4 6 -15 8 -26 5 -33 -11 -21 2 46 49 56 41
146 113 265 215 46 39 32 51 -20 17 -22 -14 -43 -26 -48 -26 -5 0 -23 -13 -42
-30 -33 -29 -96 -57 -107 -47 -3 3 9 21 26 39 17 18 31 37 31 41 0 4 14 13 30
18 35 13 40 29 8 29 -12 0 -18 3 -14 8 4 4 53 10 109 14 130 10 186 18 193 29
3 5 44 9 92 9 48 0 125 5 172 11 178 22 608 26 773 8 102 -12 108 -12 122 7
14 18 14 18 15 -8 0 -38 35 -53 150 -67 92 -12 188 -7 221 10 9 5 45 73 79
151 34 79 67 149 73 156 11 14 73 9 90 -7 4 -4 -10 -49 -32 -101 -36 -87 -42
-120 -20 -120 5 0 9 -7 9 -15 0 -8 -7 -15 -15 -15 -8 0 -15 -5 -15 -10 0 -12
42 -4 82 16 35 18 54 18 87 -2 25 -15 29 -14 68 12 34 22 40 30 33 44 -10 19
-4 30 17 30 7 0 13 -9 13 -21 0 -11 5 -17 10 -14 6 3 10 -1 10 -9 0 -9 -3 -15
-7 -14 -5 2 -33 -12 -64 -30 -78 -45 -131 -62 -216 -69 -75 -6 -109 -24 -76
-38 10 -5 88 -9 173 -9 150 -2 187 -7 175 -27 -4 -5 7 -12 24 -15 18 -4 28
-11 25 -19 -9 -21 88 -36 101 -15 9 15 45 12 45 -3 0 -7 -6 -19 -12 -26 -11
-10 -7 -12 16 -9 42 4 43 -17 0 -30 -24 -7 -45 -8 -61 -1 -14 5 -29 7 -33 4
-5 -3 -27 -1 -49 4 -23 5 -43 6 -45 2 -5 -7 78 -38 119 -45 24 -5 85 -59 85
-75 0 -6 -12 -11 -26 -11 -20 0 -25 4 -20 16 7 17 -30 52 -48 46 -4 -1 -14 3
-22 9 -8 7 -17 10 -19 7 -10 -10 6 -33 35 -53 30 -20 39 -35 21 -35 -5 0 -33
19 -61 43 -77 62 -132 97 -154 97 -14 0 -4 -12 35 -40 30 -22 64 -49 77 -60
13 -11 41 -32 62 -47 22 -16 38 -32 37 -37 -2 -5 15 -28 36 -50 22 -23 60 -68
85 -101 26 -33 68 -82 95 -110 26 -27 64 -74 84 -102 38 -55 52 -63 72 -39 10
11 9 21 -3 45 -9 16 -16 36 -16 43 1 7 27 33 60 58 45 34 61 53 66 78 4 23 11
31 20 28 8 -3 20 -8 27 -11 22 -9 107 115 107 156 0 29 15 48 22 28 4 -12 75
77 101 128 10 18 30 45 46 60 16 15 46 53 67 83 20 30 74 106 118 168 45 63
87 124 95 135 8 12 33 49 55 82 l41 60 0 135 c0 79 -5 148 -12 167 -12 34 -13
33 71 137 l29 36 -27 25 c-14 13 -26 28 -26 34 0 15 39 0 54 -21 13 -19 17
-16 75 54 33 40 61 76 61 80 0 5 -964 7 -2142 7 -1179 -1 -2128 -5 -2109 -9
18 -4 36 -12 40 -18 12 -18 52 -33 73 -27 11 4 30 3 42 -3 11 -5 38 -18 59
-27 46 -20 44 -29 -3 -15 -19 6 -42 8 -51 5 -9 -3 -31 1 -50 9 -47 19 -143 30
-134 16 4 -6 14 -9 22 -6 8 3 11 2 8 -4 -3 -5 0 -18 7 -29 24 -39 -4 -35 -40
5 -21 22 -45 43 -54 47 -11 4 -18 17 -18 32 l0 25 -365 0 -366 0 17 -32 c9
-18 29 -49 44 -68 15 -19 44 -71 66 -115 21 -44 42 -81 47 -83 4 -2 7 -10 7
-17 0 -7 5 -15 12 -17 6 -2 17 -29 24 -59 18 -73 18 -88 0 -64 -12 17 -18 18
-40 7 -14 -6 -26 -8 -26 -3 0 5 7 12 16 15 15 6 15 8 0 31 -9 13 -16 30 -16
36 0 7 -16 31 -35 55 -19 23 -35 46 -35 50 0 9 -134 216 -157 244 -15 17 -30
20 -90 20 -40 0 -73 -3 -72 -7 2 -27 98 -228 107 -225 8 1 12 -13 12 -40 0
-48 47 -237 64 -255 8 -9 24 -8 71 7 33 11 72 27 88 35 26 16 27 16 27 -9 0
-19 -6 -27 -22 -30 -13 -3 -51 -10 -85 -17 -55 -10 -61 -14 -53 -30 6 -10 10
-31 10 -48 0 -24 11 -41 52 -78 28 -27 64 -60 79 -74 16 -15 40 -29 54 -33 16
-4 30 -19 40 -42 19 -45 19 -44 -3 -44 -18 0 -18 -2 -23 -142 0 -20 -7 -39
-14 -42 -19 -7 -135 94 -148 129 -5 12 -17 16 -48 14 -22 -2 -43 1 -47 7 -11
17 -51 36 -62 29 -6 -3 -10 0 -10 8 0 8 -14 29 -30 47 -25 27 -28 35 -18 48
10 12 10 16 1 19 -17 6 -16 28 1 56 16 26 27 100 17 116 -5 7 -17 1 -35 -20
-24 -27 -27 -37 -22 -70 5 -31 3 -40 -13 -48 -10 -6 -21 -8 -24 -5 -3 3 -37 7
-76 8 -42 2 -77 9 -87 17 -20 16 -76 19 -86 4 -12 -16 -9 -25 6 -19 19 7 29
-12 18 -32 -7 -12 -11 -13 -17 -5 -5 9 -10 9 -21 0 -8 -6 -16 -10 -18 -8 -21
29 -53 92 -61 124 -13 54 -50 60 -88 16 -14 -17 -27 -36 -30 -43 -3 -10 -9 -9
-24 5 -19 16 -21 17 -27 1 -4 -10 -13 -14 -25 -11 -27 7 -48 -9 -78 -56 -14
-23 -34 -48 -45 -55 -19 -14 -48 -63 -48 -83 0 -7 14 -10 40 -7 26 2 41 -1 44
-9 9 -23 22 -14 40 25 25 54 58 114 61 110 7 -8 -41 -178 -50 -178 -6 0 -21
-22 -32 -50 -12 -27 -27 -50 -35 -50 -7 1 -37 30 -66 67 l-52 65 25 26 c14 14
28 37 31 51 3 14 11 37 19 51 28 52 51 127 44 140 -4 8 -12 27 -17 42 -9 23
-19 27 -66 33 -42 6 -56 11 -56 24 1 44 5 45 232 31 117 -7 218 -11 223 -9 9
2 81 -5 168 -17 44 -7 52 15 12 36 -25 13 -30 26 -20 52 4 11 18 2 49 -29 25
-24 47 -50 50 -58 6 -18 86 -21 86 -4 0 6 9 8 20 4 24 -8 28 19 6 44 -7 9 -18
42 -24 73 -6 32 -20 77 -31 100 -10 24 -28 70 -39 103 -12 33 -24 68 -27 78
-4 9 -3 17 3 17 6 0 14 -9 17 -20 12 -37 23 -20 14 23 -4 23 -10 59 -14 80
l-6 37 -1099 0 -1100 0 0 -636z m3685 411 c119 -55 249 -144 191 -129 -28 7
-28 7 -12 -18 17 -26 56 -48 84 -48 15 0 15 2 2 10 -21 14 -6 12 26 -2 27 -13
27 -13 4 -18 -21 -5 -21 -7 -8 -20 19 -20 41 -60 35 -66 -2 -3 -10 2 -17 11
-16 19 -34 19 -50 0 -10 -12 -16 -13 -24 -5 -8 8 -7 13 2 19 16 10 -88 111
-115 111 -19 0 -175 49 -235 75 -21 8 -39 21 -39 28 -4 36 -8 54 -14 69 -6 16
-3 17 26 11 31 -6 33 -5 20 10 -22 28 1 20 124 -38z m-285 -57 c-21 -48 -25
-66 -17 -77 12 -14 51 -31 82 -36 52 -7 96 -18 100 -25 7 -11 -31 -23 -44 -15
-6 3 -35 10 -66 16 -43 8 -63 7 -86 -3 -34 -15 -37 -24 -9 -31 33 -8 23 -24
-20 -31 -25 -4 -40 -12 -40 -21 0 -8 -9 -31 -19 -52 -21 -43 -46 -99 -55 -127
-4 -10 -9 -16 -12 -13 -3 3 3 27 14 54 54 137 55 146 17 153 l-30 6 25 9 c14
5 31 10 39 11 17 3 29 21 37 54 15 67 85 187 111 190 1 0 -11 -28 -27 -62z
m-1965 -216 c6 -4 10 -17 9 -29 -1 -13 2 -23 6 -23 5 0 6 -9 3 -19 -3 -14 3
-23 22 -33 34 -16 37 -32 7 -36 -12 -2 -28 -12 -35 -23 -6 -10 -17 -19 -24
-19 -15 0 -17 36 -3 45 6 3 10 24 10 46 0 61 -31 50 -87 -31 -18 -25 -48 -63
-69 -85 -65 -71 -115 -137 -161 -215 -24 -41 -61 -103 -82 -138 -21 -35 -56
-82 -78 -105 -22 -23 -49 -57 -59 -74 -10 -18 -21 -33 -25 -33 -4 0 -10 -7
-13 -15 -4 -11 4 -8 27 8 17 13 40 22 50 20 9 -3 17 0 17 6 0 6 -7 11 -16 11
-8 0 -12 5 -9 11 4 6 13 8 20 5 7 -2 16 2 19 10 3 8 11 14 17 14 18 0 4 -65
-22 -101 -12 -17 -25 -49 -29 -71 -7 -34 -5 -41 16 -55 28 -18 33 -56 7 -51
-9 2 -20 14 -23 28 -9 36 -50 36 -105 -1 -25 -17 -45 -35 -45 -40 0 -11 -88
-69 -105 -69 -6 0 -20 6 -30 14 -18 13 -16 16 23 54 42 41 55 69 28 59 -8 -3
-30 -2 -49 4 -31 8 -35 13 -41 56 -6 43 -4 49 26 80 29 30 30 34 16 50 -21 23
-35 93 -19 93 6 0 11 7 11 15 0 27 25 27 75 1 26 -15 61 -26 76 -26 16 0 29
-5 29 -11 0 -6 -7 -8 -16 -5 -12 5 -15 2 -10 -10 5 -13 2 -15 -14 -11 -11 3
-23 0 -27 -5 -4 -7 -10 -5 -18 5 -10 14 -17 15 -44 6 -17 -6 -31 -12 -31 -13
0 -2 7 -17 16 -35 12 -24 13 -36 5 -44 -6 -6 -11 -21 -11 -33 0 -12 -7 -24
-15 -28 -28 -10 -5 -37 29 -34 24 2 30 -1 28 -14 -9 -58 80 26 98 91 5 20 17
46 25 59 9 12 13 27 10 32 -3 6 4 10 16 10 25 0 113 84 123 117 4 12 29 56 56
98 27 41 59 94 71 116 11 23 34 60 50 82 33 46 31 57 -6 33 -14 -9 -25 -12
-25 -6 0 6 -4 8 -10 5 -6 -4 -10 7 -10 25 0 20 6 33 18 37 9 3 29 19 44 35 15
15 32 28 39 28 6 0 8 7 5 16 -4 11 -1 14 12 10 18 -5 62 25 62 43 0 6 14 17
30 26 17 9 30 20 30 25 0 5 15 11 33 13 17 2 34 4 37 5 3 1 10 -2 15 -6z
m-380 -43 c3 -3 -2 -12 -10 -19 -7 -6 -12 -17 -9 -25 3 -7 -7 -17 -25 -23 -17
-6 -31 -16 -31 -21 0 -6 -8 -11 -18 -11 -11 0 -27 -9 -37 -20 -10 -11 -23 -20
-29 -20 -14 -1 -126 -107 -147 -140 -14 -22 -18 -23 -33 -11 -9 8 -19 11 -23
7 -3 -3 -1 -6 5 -6 19 0 9 -40 -18 -73 -14 -17 -54 -61 -90 -99 -83 -87 -100
-106 -100 -115 0 -13 -53 -63 -67 -63 -22 0 -16 58 7 65 20 6 48 45 33 45 -4
0 -24 -10 -43 -21 l-35 -21 20 23 c26 31 353 352 368 361 6 4 15 4 21 1 5 -3
6 -1 2 5 -4 7 -2 12 3 12 11 0 84 71 149 143 27 30 40 36 68 35 19 -1 37 -5
39 -9z m2030 -196 c-14 -48 -51 -151 -80 -228 -29 -77 -56 -149 -59 -159 -4
-10 -9 -16 -12 -13 -10 10 127 466 149 495 7 8 14 9 20 3 6 -6 0 -41 -18 -98z
m-1905 -304 c0 -20 4 -29 13 -26 6 2 12 13 12 25 1 34 13 37 40 8 32 -34 31
-42 -4 -60 -31 -17 -44 -38 -35 -61 9 -22 23 -18 34 10 5 14 16 28 24 31 23 9
56 -14 56 -39 0 -25 -51 -129 -65 -134 -6 -1 -21 16 -35 39 -14 22 -40 59 -58
81 -20 25 -32 48 -29 59 6 21 6 21 -27 8 -14 -5 -26 -8 -26 -6 0 8 85 95 93
96 4 0 7 -14 7 -31z m555 -209 c6 -4 24 -11 42 -14 46 -10 55 -27 48 -83 -11
-84 -16 -103 -28 -103 -14 0 -67 84 -67 105 0 8 -8 23 -17 33 -15 14 -43 65
-43 76 0 6 55 -6 65 -14z m195 -455 c9 -11 10 -22 2 -42 -31 -80 -39 -145 -40
-298 -1 -94 3 -167 9 -175 8 -11 12 -12 16 -2 8 20 25 14 18 -7 -12 -39 17
-33 55 10 l37 43 -2 -74 c-1 -54 -7 -86 -23 -116 -24 -48 -52 -75 -52 -51 0 8
7 28 15 43 29 56 11 75 -24 25 -23 -33 -27 -72 -9 -100 9 -16 8 -31 -7 -75
-11 -31 -25 -56 -31 -56 -7 0 -20 -20 -30 -45 -17 -45 -27 -54 -40 -34 -4 8
-9 8 -17 0 -6 -6 -18 -11 -25 -11 -10 0 -6 9 12 25 33 30 33 58 1 83 -30 23
-32 36 -6 27 15 -5 19 2 25 41 10 78 7 319 -5 354 -12 34 -14 23 47 280 12 52
25 112 28 133 7 39 25 48 46 22z m1497 -139 c-46 -148 -70 -245 -71 -288 -1
-9 -4 -20 -8 -24 -5 -4 -8 -16 -8 -26 0 -10 -5 -18 -11 -18 -7 0 -9 12 -7 32
4 26 3 28 -7 15 -12 -17 -35 -23 -35 -11 0 5 105 287 159 424 4 12 6 11 9 -4
2 -10 -7 -55 -21 -100z m-192 35 c-3 -15 -33 -100 -66 -187 -73 -189 -89 -240
-89 -270 0 -13 -8 -31 -18 -41 -23 -22 -52 -80 -52 -102 0 -9 -18 -52 -40 -94
-22 -43 -45 -97 -51 -120 -6 -23 -26 -75 -45 -115 -19 -40 -34 -77 -34 -82 0
-6 -2 -10 -4 -10 -2 0 -11 -3 -20 -6 -25 -10 -20 18 23 119 21 51 42 103 46
117 4 14 25 66 47 115 22 50 46 104 53 120 36 81 134 364 135 388 0 28 -18 11
-45 -44 -33 -63 -71 -70 -46 -7 5 13 24 69 42 126 17 56 35 102 38 102 3 0 16
-3 29 -6 22 -6 23 -10 17 -54 -4 -26 -3 -50 2 -53 5 -4 25 25 44 63 19 39 35
70 37 70 2 0 1 -13 -3 -29z m-1489 -50 c-12 -97 -14 -102 -50 -96 -81 13 -139
25 -143 29 -13 13 10 36 62 62 31 16 65 38 76 50 13 14 28 20 41 16 19 -4 20
-10 14 -61z m4405 22 c6 -35 2 -58 -8 -56 -13 3 -21 -48 -21 -135 0 -29 -6
-67 -12 -83 -15 -35 -1 -79 25 -79 10 0 15 -10 15 -29 0 -37 -16 -48 -39 -27
-10 9 -20 16 -23 16 -2 0 -27 -47 -54 -105 -27 -58 -52 -105 -55 -105 -10 0 2
74 12 78 4 2 11 20 15 40 4 20 12 44 19 52 7 8 22 44 34 80 24 68 22 106 -4
157 -21 40 -19 73 4 73 19 0 21 10 6 43 -8 20 -2 30 21 33 33 5 42 13 37 33
-4 15 -1 21 11 21 9 0 17 -3 17 -7z m-4481 -144 c45 -10 50 -13 50 -37 0 -46
-14 -56 -66 -53 -27 1 -64 9 -83 17 -20 7 -45 12 -56 11 -12 -1 -21 5 -23 17
-3 16 0 18 22 12 20 -5 26 -3 26 9 0 16 31 33 62 34 9 1 40 -4 68 -10z m1872
-21 c3 -7 1 -31 -4 -53 -4 -22 -12 -63 -17 -91 -17 -94 -31 -134 -47 -134 -24
0 -74 29 -74 44 0 26 28 92 71 169 41 73 62 92 71 65z m553 -244 c29 -19 31
-41 10 -104 -38 -110 -57 -148 -78 -154 -22 -6 -97 25 -116 47 -10 13 35 123
86 209 20 34 25 37 48 28 13 -5 36 -17 50 -26z m-1874 -144 c-20 -87 -60 -255
-67 -277 -4 -16 -36 -17 -51 -2 -7 7 -8 19 -3 33 5 11 19 68 30 126 27 133 38
164 56 149 10 -8 16 -3 29 26 8 21 16 45 16 54 1 11 3 9 6 -4 2 -11 -5 -58
-16 -105z m-653 34 c2 -24 11 -34 39 -48 19 -9 33 -20 29 -23 -3 -3 -31 -16
-63 -29 -46 -19 -60 -21 -72 -11 -31 24 -50 52 -51 74 0 12 -4 25 -10 28 -5 3
-10 12 -10 20 0 15 40 23 100 21 32 -1 35 -4 38 -32z m3540 -2 c29 -19 27 -27
-25 -147 -22 -49 -43 -98 -46 -107 -11 -30 -117 -23 -117 8 0 13 11 40 86 202
36 80 43 83 102 44z m-3986 -120 c3 -9 2 -26 -2 -37 -9 -24 6 -46 26 -38 10 4
17 -2 21 -15 3 -12 11 -18 18 -16 7 3 35 -6 63 -20 39 -20 54 -35 71 -71 16
-34 19 -50 11 -65 -5 -10 -10 -27 -10 -37 -1 -24 -46 -56 -68 -49 -15 5 -52
63 -52 81 0 3 14 5 30 5 17 0 30 3 30 6 0 3 -13 17 -30 31 -16 13 -30 31 -30
38 0 7 -7 18 -15 25 -34 28 -47 -32 -24 -112 10 -36 10 -58 1 -100 -6 -29 -14
-82 -17 -118 l-5 -66 41 4 c39 4 40 4 37 -24 -2 -24 -8 -30 -34 -32 -36 -4
-55 -34 -59 -98 -5 -68 -23 -119 -62 -176 -20 -29 -39 -54 -42 -56 -4 -1 -52
-31 -106 -66 -55 -36 -115 -73 -132 -85 l-33 -20 -67 44 c-50 33 -69 52 -73
72 -7 38 -29 41 -36 4 -7 -34 -15 -38 -34 -16 -11 13 -14 13 -26 -2 -12 -17
-13 -16 -14 8 0 15 12 36 30 54 l29 28 -24 29 c-14 16 -25 34 -25 39 0 14 -22
11 -41 -7 -10 -9 -35 -18 -55 -21 l-37 -5 6 37 c6 36 5 37 -12 21 -20 -18 -84
-23 -139 -11 -40 9 -97 62 -106 101 -13 50 28 104 78 104 18 0 28 39 15 61
-13 26 -11 66 5 72 7 3 16 19 19 35 12 59 105 48 178 -22 18 -17 30 -21 37
-14 5 5 20 7 32 3 19 -6 21 -12 16 -38 -4 -17 -18 -44 -33 -59 l-27 -29 18
-34 c11 -19 24 -35 30 -35 6 1 27 25 46 55 38 60 57 67 96 36 21 -17 30 -18
57 -9 18 6 41 18 52 26 18 13 16 14 -27 8 -46 -5 -48 -4 -102 48 -48 47 -126
153 -126 171 0 4 -9 18 -20 32 -11 14 -20 31 -20 38 0 19 28 27 51 15 15 -8
27 -7 49 7 17 9 30 21 30 25 0 4 4 8 10 8 5 0 7 -7 3 -16 -4 -12 -1 -15 13
-12 12 2 18 11 17 25 -3 28 43 41 65 19 12 -12 13 -20 4 -40 -6 -13 -8 -27 -5
-30 12 -11 71 -6 76 7 3 6 6 -2 6 -19 1 -25 7 -34 30 -44 17 -6 35 -9 40 -5
14 8 14 58 0 72 -14 14 -7 85 9 91 6 2 12 -1 12 -7 0 -5 5 -22 11 -38 9 -25
12 -26 20 -10 6 9 8 21 5 26 -4 5 14 21 39 35 25 15 56 38 69 51 14 14 31 25
39 25 23 0 46 33 53 78 7 44 18 55 26 24z m3506 -12 c23 -10 45 -26 48 -35 7
-18 -46 -125 -61 -125 -5 1 -27 28 -48 62 -35 55 -37 64 -26 89 13 34 29 35
87 9z m-1203 -37 c-3 -27 -15 -77 -25 -113 -10 -36 -22 -83 -25 -105 -16 -99
-72 -280 -92 -296 -10 -8 -14 -9 -10 -2 4 6 3 14 -3 18 -5 3 -10 -2 -10 -12 0
-15 -2 -14 -15 5 -12 16 -13 27 -5 41 5 11 10 35 10 53 0 19 5 39 12 46 6 6
11 30 11 54 0 25 9 62 23 88 12 25 32 68 44 95 35 81 64 140 73 143 4 2 7 10
7 18 0 8 3 14 6 14 4 0 3 -21 -1 -47z m513 -73 c18 -11 39 -20 46 -20 7 0 19
-6 25 -13 8 -10 1 -34 -30 -98 -22 -46 -46 -87 -52 -91 -15 -9 -27 0 -27 21 0
20 -29 24 -42 6 -4 -5 -9 -7 -12 -4 -5 5 11 181 19 207 6 18 35 15 73 -8z
m916 -1 c13 -6 27 -22 30 -35 6 -22 12 -24 62 -24 47 0 55 -3 50 -16 -3 -9 -6
-22 -6 -29 0 -16 -54 -75 -69 -75 -6 0 -19 17 -28 38 -21 43 -51 52 -88 28
-49 -32 -56 -21 -29 42 24 52 41 82 50 82 2 0 14 -5 28 -11z m-3484 -704 c14
-2 29 -4 34 -4 13 -1 -15 -31 -29 -31 -7 0 -17 -12 -23 -27 -12 -35 -32 -162
-32 -206 0 -18 -6 -42 -14 -53 -15 -19 -15 -19 -31 1 -13 16 -15 39 -12 125 3
58 11 129 18 158 12 50 14 53 38 47 14 -3 37 -8 51 -10z m120 -235 c12 -7 13
-15 4 -38 -13 -35 -2 -62 26 -62 11 0 20 -6 20 -14 0 -8 6 -17 13 -19 9 -4 8
-8 -3 -17 -17 -13 -106 -6 -143 11 -17 8 -27 22 -30 46 -8 46 -1 60 42 83 41
22 50 23 71 10z m-187 -160 c14 -11 37 -20 51 -20 25 0 66 -30 66 -49 0 -5 -8
-29 -19 -53 -13 -31 -29 -49 -57 -63 -21 -11 -45 -27 -54 -36 -31 -34 -65 -32
-110 6 -23 19 -49 44 -59 56 -17 21 -17 21 -36 -20 -11 -22 -26 -41 -32 -41
-22 0 -44 46 -37 74 6 25 11 28 64 30 16 1 29 10 37 26 23 48 104 110 144 110
9 0 28 -9 42 -20z m-1042 -65 c10 -4 19 -13 19 -20 0 -17 34 -37 45 -27 5 4 5
2 1 -5 -3 -6 -2 -14 4 -18 5 -3 10 -15 10 -25 0 -16 -6 -18 -37 -15 -21 2 -37
8 -35 14 1 7 -4 14 -12 17 -9 4 -36 -14 -68 -46 -47 -46 -54 -49 -65 -34 -7 9
-9 29 -6 45 4 22 2 29 -11 29 -9 0 -16 5 -16 11 0 15 39 49 57 49 7 0 13 6 13
13 0 14 68 22 101 12z"/>
<path d="M7695 8673 c4 -10 11 -34 15 -53 4 -19 8 -31 9 -26 0 5 15 -5 32 -23
24 -26 28 -35 19 -46 -15 -18 -4 -36 16 -28 16 6 -22 -80 -67 -149 -20 -32
-21 -32 -15 -5 9 39 -5 33 -32 -14 -17 -30 -29 -40 -42 -36 -15 4 -18 -1 -18
-32 0 -20 -1 -39 -2 -43 -1 -5 -3 -11 -4 -15 -1 -5 -11 -27 -23 -50 -12 -24
-17 -43 -13 -43 5 0 12 9 15 21 7 21 65 119 71 119 2 0 0 -11 -5 -23 -5 -13
-6 -29 -2 -36 9 -13 7 -40 -4 -92 -7 -31 -7 -32 10 -15 10 9 20 14 24 10 3 -4
1 -9 -5 -11 -15 -5 -2 -75 15 -81 9 -3 11 0 7 9 -4 8 -1 5 8 -5 17 -21 13 -36
-10 -36 -8 0 -14 -10 -14 -26 0 -22 4 -25 21 -21 21 6 21 5 3 -12 -13 -13 -23
-15 -31 -9 -7 5 -17 7 -23 3 -5 -3 -10 -2 -10 3 0 17 -51 10 -58 -7 -3 -9 -10
-19 -16 -24 -13 -9 37 -57 60 -57 8 0 14 -4 14 -9 0 -5 12 -16 26 -26 24 -16
26 -16 40 2 14 16 14 16 3 -6 -10 -22 -9 -27 12 -42 49 -36 60 -51 57 -72 -2
-16 -10 -22 -30 -22 -26 0 -57 -30 -71 -67 -3 -10 -11 -18 -18 -18 -11 0 27
69 44 81 5 4 6 16 3 27 -8 24 -48 41 -54 23 -2 -6 -10 -18 -18 -25 -8 -8 -14
-19 -14 -24 0 -5 -9 -20 -20 -33 -31 -38 -34 -42 -48 -70 -8 -14 -25 -39 -38
-54 -13 -15 -24 -31 -24 -35 0 -5 -7 -10 -15 -14 -18 -7 -19 -2 -2 16 17 18
127 185 127 194 0 4 10 15 22 25 11 11 17 19 12 19 -5 0 -2 5 6 10 13 9 11 13
-10 30 -14 11 -31 20 -37 20 -7 0 -13 4 -13 9 0 11 -105 91 -119 91 -6 0 -18
-12 -28 -27 -10 -16 -21 -32 -25 -38 -35 -46 -47 -58 -48 -49 0 10 10 24 50
72 6 6 7 12 3 12 -4 1 2 9 15 20 l23 19 -23 20 c-12 12 -27 21 -34 21 -6 0
-17 7 -24 15 -16 20 -29 19 -37 -2 -6 -16 -25 -44 -63 -90 -6 -7 -10 -17 -10
-22 0 -5 -6 -16 -13 -23 -7 -7 -26 -34 -41 -60 -15 -27 -31 -48 -36 -48 -4 0
-10 -8 -13 -17 -4 -10 -13 -28 -22 -40 -10 -12 -12 -24 -7 -27 6 -3 23 15 38
41 15 26 36 56 45 67 22 23 99 134 99 142 0 3 14 19 30 36 40 39 38 22 -3 -33
-18 -24 -36 -52 -40 -61 -3 -10 -11 -18 -17 -18 -5 0 -10 -5 -10 -10 0 -6 -17
-34 -37 -63 -88 -125 -86 -120 -66 -131 10 -5 21 -14 26 -20 9 -13 31 12 102
113 27 39 53 71 57 71 14 0 9 -11 -20 -49 -16 -20 -32 -44 -35 -53 -4 -10 -11
-18 -17 -18 -5 0 -10 -5 -10 -11 0 -6 -10 -25 -22 -41 l-21 -31 23 -19 c27
-21 39 -20 54 8 6 10 17 23 24 27 6 4 12 14 12 22 0 8 8 20 19 27 10 7 18 15
17 18 -2 10 34 54 40 48 5 -5 -29 -62 -47 -78 -3 -3 -16 -23 -29 -45 -13 -22
-28 -43 -34 -47 -10 -7 31 -47 49 -48 6 0 18 -8 27 -17 38 -41 45 -43 57 -17
11 24 31 33 31 14 0 -5 -4 -10 -9 -10 -5 0 -11 -9 -14 -20 -6 -23 34 -53 59
-43 13 5 15 2 9 -18 -7 -20 -6 -22 7 -11 13 10 85 119 131 197 7 11 14 22 18
25 3 3 16 23 29 45 24 40 41 57 48 50 3 -3 -92 -161 -148 -245 -9 -14 -46 -70
-82 -125 -88 -135 -181 -279 -261 -402 -37 -57 -67 -107 -67 -113 0 -5 -3 -10
-8 -10 -4 0 -16 -17 -27 -37 -11 -20 -24 -41 -30 -47 -11 -12 -53 -75 -134
-201 -28 -44 -56 -87 -61 -95 -6 -8 -29 -44 -52 -80 -23 -36 -54 -84 -70 -108
-15 -24 -28 -45 -28 -48 0 -3 -8 -17 -19 -32 -10 -15 -36 -54 -57 -87 -21 -33
-42 -61 -46 -63 -5 -2 -8 -8 -8 -14 0 -5 -8 -20 -17 -33 -25 -32 -30 -40 -154
-228 -62 -95 -108 -175 -105 -183 3 -8 0 -14 -7 -14 -8 0 -23 -18 -35 -39 -22
-39 -22 -40 -2 -46 31 -10 24 -25 -8 -19 -25 5 -33 0 -60 -38 -17 -23 -36 -48
-42 -55 -5 -7 -10 -14 -10 -17 0 -3 -13 -24 -28 -48 -16 -24 -47 -72 -70 -108
-22 -36 -45 -69 -49 -75 -4 -5 -15 -23 -23 -40 -8 -16 -17 -32 -20 -35 -9 -8
-40 -59 -40 -65 0 -2 24 -21 54 -41 30 -20 57 -42 60 -50 4 -9 15 -12 35 -8
18 4 56 -1 90 -12 60 -18 60 -18 67 -62 9 -58 -3 -75 -57 -85 -24 -5 -50 -14
-58 -20 -11 -9 -15 -9 -19 1 -9 28 -65 82 -83 82 -11 0 -22 7 -25 15 -9 24
-20 18 -38 -20 -9 -19 -20 -35 -25 -35 -4 0 -17 18 -30 40 -26 47 -52 65 -69
48 -7 -7 -12 -18 -12 -25 0 -7 -4 -13 -8 -13 -15 0 -32 -50 -26 -76 6 -23 4
-25 -21 -22 -22 2 -31 -4 -48 -34 -21 -35 -21 -37 -4 -55 20 -23 22 -50 3 -68
-11 -11 -11 -22 -1 -61 14 -55 29 -65 55 -36 61 66 127 1 74 -73 -11 -16 -25
-41 -29 -55 -4 -14 -14 -32 -22 -42 -19 -21 -9 -93 22 -163 28 -65 49 -85 89
-85 39 0 200 61 230 88 31 27 97 69 131 83 56 24 108 91 135 174 13 40 72 105
96 105 7 0 16 5 19 10 4 6 10 8 15 5 10 -6 -4 -61 -21 -81 -6 -8 -9 -14 -6
-14 14 0 84 44 112 69 17 15 42 32 57 39 24 10 29 9 42 -10 13 -18 13 -23 -6
-48 -35 -48 -3 -84 82 -92 29 -3 37 2 55 29 14 22 29 33 50 35 17 2 30 8 31
13 3 39 23 76 61 113 24 23 46 42 50 42 3 0 19 13 34 30 19 19 34 27 45 23 15
-5 16 0 10 43 -6 40 -5 47 5 37 7 -7 21 -13 31 -13 14 0 17 5 12 24 -4 18 -1
27 15 35 12 7 18 17 15 26 -8 20 13 19 24 -2 9 -14 11 -14 21 5 7 12 21 22 32
22 11 0 22 7 25 15 4 8 12 15 19 15 7 0 18 7 25 15 7 8 20 15 28 15 9 0 25 9
37 19 71 68 75 70 105 65 26 -6 31 -3 40 21 7 18 15 25 25 21 8 -3 22 -9 30
-12 27 -11 16 15 -15 33 -36 21 -38 47 -8 71 12 9 34 29 49 44 26 27 27 27 32
7 5 -17 9 -19 26 -9 12 6 21 17 21 25 0 8 16 22 36 30 41 17 84 58 84 80 0 20
21 30 31 14 5 -8 9 -9 9 -3 0 11 38 27 65 28 6 1 14 7 18 14 7 10 12 10 22 2
14 -12 35 -6 35 10 0 15 49 62 58 56 11 -7 13 -57 2 -71 -4 -5 -13 -28 -20
-50 -7 -22 -16 -42 -19 -45 -3 -3 -19 -32 -36 -65 -16 -33 -56 -98 -89 -144
-53 -75 -60 -82 -72 -67 -7 10 -10 24 -8 30 7 19 -18 35 -68 42 -40 6 -46 4
-62 -20 -16 -26 -14 -66 3 -66 12 0 61 -48 61 -59 0 -16 -69 -90 -106 -115
-18 -11 -71 -48 -120 -81 -233 -159 -261 -175 -311 -175 -21 0 -67 -8 -102
-18 l-64 -18 134 0 134 1 -3 26 c-2 20 5 28 35 42 21 9 49 27 63 39 28 26 102
68 119 68 6 0 37 20 69 45 133 104 142 109 142 73 0 -29 -26 -68 -45 -68 -24
0 -103 -53 -114 -76 -12 -26 -41 -143 -44 -173 -1 -11 -7 -21 -14 -21 -19 0
-26 -19 -13 -35 9 -11 9 -22 -1 -50 -15 -39 -33 -44 -80 -20 -20 11 -41 14
-64 9 -42 -7 -53 -20 -25 -27 24 -6 17 -33 -11 -42 -11 -4 -129 -7 -264 -7
-197 -1 -245 -4 -245 -15 0 -7 -5 -13 -11 -13 -6 0 -9 6 -6 14 5 12 0 13 -26
4 -43 -15 -44 -16 -19 -34 30 -21 28 -34 -6 -34 -35 0 -88 -50 -71 -67 22 -22
0 -32 -36 -17 -19 8 -46 14 -59 14 -16 0 -33 10 -47 29 -21 28 -21 28 -67 14
-26 -7 -64 -18 -84 -24 -21 -5 -38 -14 -38 -19 0 -5 24 -13 53 -19 162 -33
241 -52 317 -80 133 -50 198 -71 213 -71 8 0 29 -10 48 -23 19 -13 63 -38 98
-57 65 -36 118 -76 109 -85 -2 -3 -54 20 -114 50 -60 30 -113 55 -118 55 -5 0
-28 9 -50 19 -69 32 -159 62 -208 70 -42 7 -46 6 -35 -7 10 -13 7 -15 -29 -10
-50 7 -60 1 -69 -35 -7 -24 -11 -27 -45 -25 -34 3 -38 6 -38 29 1 15 -9 41
-21 58 -14 19 -17 29 -8 25 7 -2 20 2 27 11 7 8 10 15 6 15 -3 0 -56 14 -117
30 -115 32 -148 32 -215 4 -17 -7 -37 -20 -44 -29 -11 -14 -10 -17 8 -22 12
-3 19 -9 16 -14 -3 -5 5 -9 18 -9 13 0 32 -7 42 -15 18 -14 16 -15 -29 -15
-43 0 -47 -2 -35 -14 8 -8 37 -26 64 -41 26 -15 62 -39 79 -53 87 -75 107 -95
102 -100 -2 -3 -1 -10 4 -16 16 -19 17 -96 2 -96 -5 0 -20 19 -34 43 -24 41
-70 77 -83 65 -3 -3 0 -15 7 -26 9 -15 10 -24 2 -34 -9 -10 0 -27 35 -73 25
-33 49 -75 53 -95 5 -19 11 -48 14 -65 21 -96 59 -198 85 -223 34 -34 48 -72
26 -72 -22 0 -46 11 -46 21 0 5 -16 33 -37 61 -20 29 -40 70 -45 92 -5 22 -13
43 -17 46 -4 3 -11 22 -14 43 -5 29 -3 38 7 34 10 -4 11 5 5 36 -12 71 -30
101 -80 136 l-49 34 -23 -29 c-12 -16 -21 -32 -20 -36 2 -5 -1 -8 -6 -8 -12 0
-101 104 -101 118 0 14 28 23 35 12 4 -6 10 -10 16 -10 52 0 -116 127 -179
135 -20 3 -21 1 -11 -12 11 -12 10 -17 -3 -24 -26 -15 -14 -115 20 -154 15
-17 37 -45 50 -60 16 -22 22 -25 22 -12 0 9 5 17 10 17 7 0 7 -7 0 -20 -9 -17
-7 -28 10 -55 33 -54 106 -190 175 -330 61 -123 67 -131 107 -148 24 -10 55
-25 70 -33 14 -8 33 -14 40 -14 22 0 118 -96 118 -118 0 -28 -10 -33 -36 -15
-22 14 -24 14 -24 0 0 -9 8 -18 19 -22 32 -10 54 -41 42 -62 -5 -10 -19 -39
-30 -64 -27 -59 -66 -97 -115 -114 -38 -13 -106 -10 -106 6 0 4 -18 13 -40 19
-22 6 -40 15 -40 20 0 5 -9 11 -20 15 -19 6 -50 56 -50 83 0 26 -28 -6 -36
-41 -3 -18 -10 -36 -14 -42 -16 -20 -39 -115 -29 -121 5 -3 9 -11 7 -17 -3
-21 13 -77 23 -77 5 0 9 -9 9 -20 0 -23 40 -43 65 -34 14 6 29 -5 118 -81 16
-14 17 -13 17 18 0 35 16 50 66 61 22 5 35 2 52 -14 25 -23 77 -29 109 -12 12
7 46 12 75 12 53 0 63 -4 178 -68 43 -24 44 -24 54 35 3 21 0 35 -9 43 -8 7
-15 18 -15 24 -1 24 -38 53 -85 66 -27 7 -57 19 -66 27 -8 7 -21 13 -27 13
-18 0 -38 59 -40 119 -1 30 -8 58 -14 62 -9 6 -9 12 3 26 35 44 46 79 44 141
-1 35 2 65 7 68 4 3 8 13 8 22 1 9 12 30 25 46 22 28 28 30 99 30 68 1 77 -1
103 -26 16 -16 34 -28 39 -28 6 0 29 20 52 45 30 33 49 45 70 45 15 0 37 7 48
15 22 17 60 20 69 5 3 -5 21 -10 40 -10 58 0 185 -105 185 -153 0 -15 9 -32
21 -41 18 -12 21 -22 16 -50 -5 -31 -2 -38 28 -60 19 -14 36 -26 39 -26 3 0
16 11 30 25 30 30 62 35 47 7 -5 -10 -17 -24 -25 -32 -20 -16 -21 -34 -2 -27
8 3 27 -3 41 -15 21 -16 25 -27 23 -57 -3 -36 -4 -36 -45 -34 -26 1 -46 -3
-53 -12 -15 -18 -71 -20 -89 -3 -10 11 -15 9 -26 -5 -10 -14 -21 -17 -44 -12
-69 15 -144 -74 -76 -91 13 -3 29 -12 36 -20 8 -10 16 -11 31 -3 14 7 23 7 34
-2 20 -16 17 -36 -6 -49 -14 -7 -20 -21 -20 -43 0 -37 15 -57 42 -57 10 0 18
-7 18 -15 0 -10 -10 -15 -30 -15 -25 0 -30 -4 -30 -24 0 -14 -4 -28 -10 -31
-5 -3 -10 -17 -10 -29 0 -25 -41 -76 -62 -76 -7 0 -19 -9 -26 -21 -9 -14 -20
-19 -33 -16 -12 3 -28 -2 -40 -14 -10 -10 -25 -16 -34 -13 -8 4 -29 -6 -47
-21 -28 -24 -33 -25 -44 -11 -6 9 -23 16 -36 16 -20 0 -27 -6 -31 -30 -9 -42
-42 -73 -65 -61 -14 7 -21 5 -30 -10 -8 -13 -23 -19 -47 -19 -19 0 -35 4 -35
9 0 14 -100 4 -119 -13 -25 -22 -58 -20 -66 4 -4 11 -19 27 -34 35 -18 9 -30
25 -34 43 -4 21 -14 31 -31 36 -14 3 -33 19 -43 34 -9 15 -18 28 -19 30 -1 2
-11 -3 -23 -10 -29 -18 -26 -40 9 -75 22 -22 31 -40 33 -71 1 -22 6 -44 10
-48 11 -12 8 -59 -5 -72 -10 -10 -10 -15 2 -22 12 -7 12 -15 2 -43 -7 -18 -12
-41 -12 -50 0 -9 -9 -22 -20 -29 -11 -7 -20 -19 -20 -26 0 -7 -15 -19 -32 -27
l-33 -14 34 -1 c18 0 51 -10 72 -22 l39 -22 37 31 c21 16 50 33 64 36 14 4 38
18 53 32 15 14 34 25 42 25 8 0 26 7 39 16 32 21 34 15 35 -83 1 -40 16 -51
24 -19 3 14 22 41 41 62 24 26 33 43 28 53 -22 48 4 114 35 89 9 -8 16 -8 24
0 9 9 9 12 0 12 -7 0 -12 5 -12 11 0 6 12 9 27 7 35 -4 45 -37 14 -45 -25 -6
-26 -11 -5 -34 20 -23 10 -43 -15 -29 -22 11 -47 -12 -53 -50 -2 -14 -9 -24
-16 -22 -6 1 -12 -7 -12 -19 0 -13 -4 -18 -12 -13 -8 5 -9 2 -5 -10 4 -10 7
-22 7 -27 0 -5 4 -9 8 -9 12 0 54 78 48 89 -11 16 23 33 69 33 l46 1 -4 47
c-2 26 -7 52 -11 59 -14 23 4 25 27 3 13 -12 31 -22 40 -22 23 0 22 -17 -2
-29 -17 -9 -18 -16 -10 -53 5 -24 14 -53 21 -65 6 -12 8 -41 5 -64 -7 -53 19
-108 75 -158 48 -43 68 -79 68 -123 0 -49 -19 -110 -33 -105 -7 2 -20 -2 -30
-11 -14 -13 -25 -13 -70 -3 -115 25 -151 75 -145 198 3 75 -3 88 -34 71 -12
-5 -18 -5 -18 2 0 18 -18 11 -25 -11 -4 -13 -1 -27 10 -39 15 -16 15 -21 1
-55 -9 -20 -13 -41 -10 -46 3 -5 -1 -12 -9 -15 -11 -4 -14 -22 -13 -72 1 -61
3 -67 23 -70 27 -4 93 -68 93 -91 0 -9 11 -37 25 -63 22 -42 23 -47 7 -54 -9
-4 -20 -6 -24 -6 -4 1 -17 -12 -30 -28 -12 -17 -28 -30 -35 -30 -8 0 -11 -5
-8 -10 4 -6 2 -17 -5 -25 -8 -9 -8 -15 0 -20 11 -7 8 -93 -5 -130 -20 -58 -38
-92 -55 -103 -16 -10 -20 -8 -25 9 -4 11 -4 23 -1 26 3 4 6 1 6 -5 0 -7 5 -12
11 -12 5 0 8 4 4 10 -3 5 3 26 14 46 23 43 23 45 -6 38 -26 -7 -39 -34 -21
-46 10 -6 10 -8 1 -8 -7 0 -33 -23 -59 -50 -40 -43 -49 -48 -57 -35 -5 9 -6
23 -3 31 6 17 2 18 -22 4 -9 -5 -30 -15 -45 -20 -26 -9 -27 -11 -12 -26 27
-27 46 -61 43 -76 -1 -7 4 -28 11 -46 12 -29 12 -35 0 -43 -19 -12 -56 -11
-61 0 -4 12 -54 22 -74 14 -8 -3 -14 -14 -14 -24 0 -12 -7 -19 -20 -19 -25 0
-25 8 -2 33 17 19 16 20 -43 12 -53 -6 -58 -5 -46 9 7 9 19 16 26 16 7 0 16
11 19 24 3 13 9 31 12 39 4 12 0 14 -18 11 -22 -5 -22 -4 -4 8 11 7 28 22 39
32 20 19 20 19 14 -3 -3 -13 -3 -20 0 -17 4 3 13 0 21 -6 11 -10 17 -8 28 7
13 17 13 21 -2 32 -14 10 -15 17 -7 35 6 13 18 73 27 133 10 61 20 123 23 139
l5 29 -44 -7 c-43 -7 -44 -6 -57 29 -9 26 -10 40 -2 49 6 7 11 24 10 37 0 13
3 35 6 49 5 19 -1 35 -24 64 -17 21 -31 43 -31 47 0 5 -13 6 -30 3 -25 -5 -31
-2 -41 19 -6 14 -21 27 -33 29 -14 2 -22 11 -24 30 l-3 27 63 -5 c55 -5 67 -3
91 16 15 12 27 25 27 30 0 10 -98 6 -107 -4 -10 -9 -51 -7 -58 3 -3 5 -18 12
-34 16 -16 3 -35 13 -42 21 -16 20 -36 18 -71 -8 -28 -19 -31 -20 -40 -5 -14
26 -33 20 -61 -16 -13 -18 -34 -34 -46 -35 -69 -7 -104 1 -116 26 -5 11 -20
23 -32 27 -16 4 -23 13 -23 30 0 17 -8 29 -25 37 -26 12 -33 36 -14 55 21 21
0 34 -29 19 -43 -21 -128 -28 -142 -10 -7 8 -23 14 -37 14 -35 0 -63 18 -63
40 0 11 -6 20 -14 20 -25 0 -66 41 -66 66 0 14 -6 24 -14 24 -22 0 -56 54 -56
88 0 20 -6 32 -16 34 -13 2 -10 10 15 38 51 58 35 56 -22 -3 -72 -75 -107
-119 -107 -133 0 -6 11 -15 25 -18 14 -4 25 -12 25 -20 0 -7 11 -21 24 -32 14
-10 23 -21 20 -26 -8 -13 -58 2 -76 24 -10 11 -18 15 -18 8 0 -10 -3 -10 -15
0 -9 7 -19 10 -23 6 -4 -4 1 -12 11 -17 10 -6 17 -22 17 -42 0 -29 3 -32 33
-33 17 -1 35 4 39 10 4 6 8 -4 8 -21 0 -24 5 -33 16 -33 13 0 15 -7 11 -35 -5
-31 -3 -37 18 -45 13 -5 29 -18 35 -30 17 -31 29 -15 27 35 -2 49 9 57 37 26
11 -12 25 -16 42 -13 24 4 25 3 15 -16 -9 -18 -8 -23 8 -32 11 -5 27 -10 35
-10 11 0 16 -9 16 -28 0 -26 -2 -27 -39 -24 -22 2 -47 0 -57 -6 -15 -9 -14
-12 10 -33 16 -13 41 -24 57 -24 16 0 28 -4 28 -10 0 -5 -11 -9 -24 -7 -20 3
-25 -1 -25 -17 0 -16 -6 -21 -25 -21 -17 0 -23 4 -19 15 9 23 -5 37 -27 25
-11 -6 -19 -7 -19 -2 0 15 -60 7 -76 -10 -12 -12 -13 -20 -3 -41 16 -34 6 -44
-26 -27 -34 18 -56 0 -31 -25 14 -14 19 -15 32 -4 13 10 17 10 25 -2 6 -10 3
-15 -11 -17 -11 -2 -20 -9 -20 -16 0 -7 -11 -22 -23 -35 -21 -19 -26 -20 -36
-7 -7 8 -19 12 -27 9 -8 -3 -21 1 -30 8 -14 11 -19 9 -34 -11 -18 -24 -20 -24
-32 -7 -10 13 -24 18 -48 15 -33 -3 -35 -5 -32 -36 3 -23 -4 -41 -22 -63 -19
-23 -24 -37 -19 -59 5 -27 3 -30 -21 -30 -14 0 -26 -6 -27 -12 0 -7 -2 -26 -4
-43 -26 -218 -32 -262 -38 -272 -4 -6 -4 -19 -1 -28 6 -14 9 -12 24 10 14 21
19 23 28 12 18 -21 27 -78 14 -86 -7 -4 -18 -25 -26 -46 l-15 -40 0 42 c-1 46
-9 73 -21 73 -8 0 -17 -40 -40 -167 -6 -32 -15 -65 -19 -73 -5 -9 -12 -35 -16
-58 l-7 -42 -1949 0 -1949 0 -104 105 c-58 57 -117 121 -133 142 -15 21 -44
54 -63 73 -19 20 -32 31 -27 26 4 -6 7 -14 7 -20 0 -5 -11 5 -25 24 -14 19
-25 36 -25 39 0 3 7 -2 14 -11 7 -10 16 -15 19 -12 3 3 -9 27 -27 53 -42 61
-97 162 -125 233 -13 31 -28 55 -34 54 -7 -2 -9 -1 -4 1 14 9 7 35 -8 29 -9
-3 -15 0 -15 8 0 8 5 16 12 18 8 3 8 9 0 24 -6 10 -12 13 -12 6 0 -7 -5 -10
-10 -7 -7 4 -7 12 0 25 14 26 13 33 -5 26 -11 -4 -15 2 -15 20 0 16 4 23 11
18 8 -4 9 3 5 25 -3 17 -9 45 -12 61 -5 25 -8 29 -20 19 -11 -9 -14 -7 -15 10
-1 27 -1 99 0 109 1 4 3 68 5 142 4 168 27 264 102 428 19 41 34 75 34 77 0
13 90 158 119 191 20 23 61 74 91 114 30 40 87 104 127 143 69 67 72 73 75
121 l3 51 57 0 c55 1 61 3 128 58 38 31 76 57 83 57 25 0 179 120 173 135 -3
8 -1 17 4 20 6 4 10 2 10 -4 0 -16 41 -6 103 25 45 22 57 33 53 47 -3 13 3 21
21 28 14 5 30 8 37 7 15 -4 19 4 11 25 -8 19 -55 23 -85 7 -23 -12 -26 -3 -35
100 -7 85 -29 163 -51 180 -11 10 -21 10 -46 -1 -24 -10 -33 -10 -36 -1 -2 7
-10 12 -17 12 -16 0 -40 -64 -30 -80 4 -6 -4 -20 -17 -31 -17 -15 -18 -19 -5
-15 11 3 17 0 17 -10 0 -11 -6 -13 -20 -9 -17 5 -20 2 -20 -23 0 -33 -26 -62
-55 -60 -11 0 -47 -15 -79 -36 -55 -33 -61 -35 -82 -21 -13 8 -34 14 -48 13
l-24 -2 20 -26 c72 -93 78 -104 78 -137 0 -31 -2 -34 -27 -31 -23 3 -28 -2
-36 -32 -11 -44 -25 -60 -36 -41 -5 7 -15 11 -22 9 -8 -3 -26 1 -41 8 -26 13
-27 13 -25 -14 2 -24 -2 -27 -33 -30 -20 -2 -43 4 -55 12 -20 16 -20 16 5 36
14 11 36 20 49 20 20 0 22 3 13 12 -7 7 -12 20 -12 29 0 10 -4 20 -9 23 -14 9
-41 -4 -41 -20 0 -16 -36 -19 -45 -4 -3 6 1 13 10 16 13 5 10 10 -15 25 -38
23 -40 23 -40 1 0 -10 -5 -23 -12 -30 -15 -15 -6 -24 24 -26 18 -1 22 -6 20
-23 -2 -12 2 -24 8 -28 13 -8 13 -48 1 -60 -6 -6 -4 -18 7 -33 17 -22 19 -22
50 -6 56 27 76 0 35 -47 -18 -21 -95 -34 -120 -20 -10 5 -29 12 -43 15 -28 6
-170 92 -212 128 -15 13 -27 28 -27 35 -1 14 -74 74 -117 96 -17 9 -41 32 -55
51 -13 20 -31 36 -39 36 -11 -1 -10 -4 4 -15 13 -10 17 -18 10 -25 -10 -10
-86 39 -139 90 -112 111 -145 147 -145 161 0 9 -7 22 -15 29 -13 11 -15 -13
-15 -208 l0 -220 31 -6 c17 -3 52 -6 78 -6 38 0 54 -6 86 -32 22 -18 42 -36
43 -40 2 -5 12 -8 23 -8 10 0 34 -9 54 -20 20 -11 44 -20 54 -20 10 0 24 -7
32 -16 17 -21 64 -44 89 -44 25 0 80 -39 80 -57 0 -7 6 -10 14 -7 8 3 20 -2
27 -11 45 -54 58 -62 120 -74 74 -14 86 -20 89 -41 8 -51 11 -50 -157 -50 -87
0 -205 -1 -263 -1 -88 -1 -111 2 -140 19 -41 23 -100 36 -100 22 0 -6 -5 -10
-10 -10 -7 0 -7 7 0 20 9 16 7 22 -7 27 -10 3 -31 15 -46 26 -16 10 -31 17
-34 13 -3 -3 -18 1 -34 10 l-29 15 0 -1131 0 -1130 4285 0 4285 0 0 529 0 529
-27 5 c-19 4 -34 -1 -49 -14 -27 -26 -39 -24 -64 9 -12 15 -31 27 -43 27 -13
0 -30 13 -44 34 -13 19 -33 39 -46 45 -12 6 -29 26 -37 43 -8 18 -22 35 -31
38 -20 7 -32 70 -19 96 6 10 10 27 10 38 0 14 8 22 25 26 14 3 36 7 50 10 14
3 25 1 25 -5 0 -5 -7 -10 -15 -10 -17 0 -20 -16 -4 -25 6 -4 7 -14 3 -24 -7
-18 -7 -62 2 -104 4 -19 12 -27 27 -27 13 0 40 -12 61 -26 31 -21 37 -30 32
-50 -4 -13 -2 -24 3 -24 5 0 16 -3 25 -6 12 -4 16 0 16 15 0 12 6 21 16 21 24
0 55 -20 48 -31 -4 -7 1 -9 11 -7 25 4 30 27 9 35 -24 9 -64 44 -64 56 0 6 17
7 39 3 l40 -6 0 245 1 246 -33 15 -32 15 33 -4 32 -4 0 64 0 63 -27 -5 c-16
-2 -37 -5 -48 -7 -27 -4 -36 -18 -24 -41 8 -14 13 -16 24 -7 18 15 60 9 60 -9
0 -25 -190 -49 -212 -28 -3 3 -2 33 2 67 6 48 13 66 35 89 28 28 29 28 14 72
-9 24 -23 58 -33 74 -26 46 -18 85 18 85 10 0 24 7 31 15 7 8 19 15 27 15 12
0 14 -9 9 -44 -4 -26 -3 -47 3 -50 11 -7 59 12 79 31 14 14 7 53 -9 53 -5 0
-9 5 -9 10 0 6 9 10 19 10 14 0 18 5 14 20 -3 12 1 22 11 26 14 6 16 54 16
495 l0 489 -39 -19 c-21 -11 -41 -17 -45 -14 -3 3 -13 0 -21 -7 -22 -18 -53
13 -92 93 -81 167 -93 193 -93 209 0 9 -4 20 -10 23 -5 3 -10 24 -10 47 0 37
-2 39 -17 27 -9 -8 -14 -9 -11 -4 3 6 19 40 36 77 36 79 69 106 104 87 43 -23
130 -6 176 34 l22 20 0 351 0 351 -32 18 -32 19 32 28 32 28 0 292 c-1 295 -4
314 -36 264 -10 -15 -10 -26 2 -59 15 -44 18 -82 7 -88 -5 -2 -20 -7 -36 -11
-23 -5 -29 -2 -36 17 -5 13 -22 33 -37 44 l-27 20 38 59 c55 84 83 113 106
107 18 -5 19 2 18 188 -1 107 -4 184 -6 171 -3 -12 -13 -28 -24 -35 -11 -7
-19 -23 -19 -40 0 -18 -11 -39 -30 -59 -16 -16 -30 -36 -30 -44 0 -9 -12 -31
-27 -51 -25 -33 -30 -35 -70 -30 -48 5 -52 -2 -27 -51 17 -36 11 -51 -52 -118
-19 -20 -38 -49 -41 -65 -3 -16 -23 -47 -45 -70 -21 -22 -43 -51 -48 -65 -13
-34 -92 -134 -105 -134 -6 0 -19 -13 -28 -30 -10 -16 -22 -30 -26 -30 -5 0
-27 -18 -49 -40 -38 -39 -62 -50 -62 -31 0 6 4 12 9 15 5 3 7 15 4 26 -3 11
-1 20 5 20 6 0 16 16 22 35 6 20 24 50 38 67 46 53 140 191 168 246 28 54 46
69 36 30 -5 -21 -4 -22 11 -9 9 7 17 20 17 27 0 8 6 11 16 7 13 -5 15 -2 10
13 -4 14 3 25 28 41 33 21 63 78 47 88 -5 2 -3 28 4 57 17 70 25 88 39 88 6 0
31 43 56 95 33 69 51 96 68 101 12 3 22 10 22 16 0 5 5 6 10 3 6 -4 9 -1 8 6
-4 15 50 31 58 17 4 -6 1 -14 -6 -18 -9 -6 -9 -12 -1 -29 7 -11 14 -21 16 -21
3 0 5 695 5 1545 l0 1545 -216 0 c-211 -1 -217 -1 -235 -23 -10 -12 -18 -26
-19 -30 0 -4 -12 -23 -27 -42 -19 -24 -30 -31 -36 -22 -5 7 -6 2 -2 -11 5 -17
1 -29 -14 -43 -27 -25 -31 -24 -27 9 2 15 1 21 -1 15 -2 -7 -8 -13 -11 -13
-12 0 -30 -54 -31 -93 -1 -60 -15 -68 -21 -12 -5 47 -7 50 -38 56 -19 4 -38
11 -43 16 -15 15 -15 109 0 127 22 27 34 7 27 -45 -5 -39 -4 -49 8 -49 8 0 16
3 19 8 2 4 2 1 1 -5 -2 -7 6 -13 18 -13 19 0 20 4 15 47 -3 32 -2 42 5 30 14
-25 23 -21 38 18 9 22 20 35 32 35 11 0 18 7 18 20 0 18 -6 20 -37 18 -21 -1
-49 -8 -62 -14 -13 -7 -30 -10 -37 -7 -8 3 -14 -1 -14 -8 0 -7 -3 -9 -6 -6 -4
4 -1 13 6 22 11 13 1 15 -90 15 -93 0 -102 -1 -95 -17z m586 -770 c36 -22 45
-53 28 -96 -20 -52 -28 -58 -52 -44 -36 21 -57 41 -57 54 0 7 -8 13 -18 13
-24 0 -64 29 -41 30 8 0 28 14 44 30 33 34 55 37 96 13z m-405 -3547 c8 -8 14
-19 14 -25 0 -6 4 -11 10 -11 5 0 20 -11 33 -24 23 -22 24 -30 21 -122 -2 -94
-8 -152 -19 -201 -6 -24 4 -30 22 -12 17 17 62 -30 65 -71 4 -50 -21 -46 -50
8 -22 40 -26 43 -56 36 -39 -8 -41 -10 -27 -28 7 -8 19 -12 28 -9 10 4 14 0
12 -13 -2 -10 0 -25 5 -32 4 -7 3 -19 -4 -27 -14 -16 -5 -35 16 -35 8 0 17 -7
20 -15 4 -8 12 -15 19 -15 8 0 12 -15 12 -40 0 -46 6 -44 -105 -26 -55 9 -85
10 -89 3 -9 -15 24 -35 51 -30 13 3 32 0 43 -6 16 -9 16 -11 -7 -12 -26 -2
-41 -5 -50 -9 -3 -1 -33 -4 -67 -5 -34 -1 -78 -10 -97 -19 -19 -9 -56 -19 -83
-22 -47 -5 -48 -5 -28 13 26 23 27 76 3 81 -10 2 -18 9 -18 16 0 22 38 102 55
116 9 8 13 21 9 32 -6 19 58 155 80 170 6 4 26 8 44 8 17 0 32 5 32 10 0 18
-41 52 -56 46 -8 -3 -14 1 -14 9 0 8 7 15 15 15 8 0 15 5 15 11 0 7 10 31 22
55 15 32 32 49 60 61 21 9 38 21 38 27 0 6 5 5 12 -2 31 -31 38 0 8 38 -18 23
-28 70 -14 70 3 0 12 -6 20 -14z m-356 -180 c33 -12 34 -13 14 -24 -15 -8 -23
-24 -26 -54 -7 -60 -43 -139 -67 -145 -16 -4 -19 -11 -14 -34 4 -22 1 -30 -13
-35 -52 -16 -66 -28 -61 -52 4 -21 2 -23 -19 -18 -20 5 -24 3 -24 -15 0 -15 4
-19 16 -15 19 7 44 -10 44 -30 0 -8 -11 -19 -24 -24 -27 -10 -77 0 -73 15 1 5
-14 12 -33 16 -18 4 -40 15 -46 24 -16 22 -79 55 -103 55 -11 0 -22 4 -25 9
-3 5 -18 11 -33 14 -16 3 -68 17 -118 31 -49 15 -97 28 -105 30 -17 3 -27 46
-11 46 6 0 11 -5 11 -11 0 -5 5 -7 11 -4 6 4 8 13 5 20 -6 18 14 35 42 35 14
0 36 13 52 30 24 26 34 30 81 29 30 -1 62 -6 72 -11 24 -13 74 8 82 33 7 21 8
21 75 25 25 1 81 7 125 12 44 6 84 11 89 11 4 1 6 7 3 15 -6 15 11 36 28 35 5
0 26 -6 45 -13z m-1368 -62 c36 -78 -132 -149 -172 -74 -18 34 -12 43 25 37
33 -5 63 12 37 21 -16 5 -15 32 1 32 7 0 19 -6 26 -12 10 -11 14 -10 22 5 15
26 48 21 61 -9z m763 -330 c11 -8 20 -20 20 -27 0 -7 14 -12 30 -12 17 0 49
-13 72 -27 23 -15 71 -41 107 -58 36 -17 68 -35 70 -39 6 -10 -38 -31 -64 -31
-10 0 -21 -6 -23 -12 -4 -9 -11 -6 -24 10 -17 21 -20 21 -41 7 -21 -15 -22
-15 -22 9 0 14 -5 28 -10 31 -21 13 -40 -17 -40 -60 0 -42 -1 -44 -47 -61 -27
-10 -54 -27 -62 -37 -8 -11 -21 -17 -33 -14 -13 4 -22 -1 -28 -16 -8 -21 -9
-20 -9 6 -1 15 -5 27 -11 27 -5 0 -10 11 -10 24 0 13 -3 32 -6 41 -6 13 -9 14
-16 3 -7 -9 -8 -4 -4 15 5 20 3 27 -9 27 -11 0 -15 11 -15 40 0 22 -4 40 -10
40 -5 0 -10 4 -10 9 0 5 9 7 20 4 12 -3 22 1 26 11 3 9 13 16 21 16 8 0 35 12
59 26 35 20 43 31 39 45 -8 23 3 24 30 3z m875 -229 c36 -19 37 -25 5 -53 -26
-23 -33 -60 -15 -78 8 -8 6 -15 -5 -24 -8 -7 -15 -21 -15 -31 0 -11 -7 -19
-15 -19 -7 0 -18 -7 -23 -17 -9 -16 -45 -12 -40 4 2 4 -1 9 -6 10 -5 0 -13 8
-18 17 -5 9 -13 14 -19 11 -5 -4 -9 -2 -9 4 0 5 4 12 9 15 5 3 7 15 4 26 -3
11 -9 17 -14 15 -4 -3 -12 3 -18 13 -5 10 -28 24 -49 30 -22 7 -45 19 -52 27
-11 13 -8 15 16 15 15 0 53 6 83 14 31 8 76 19 101 24 25 5 46 10 48 11 2 0
16 -6 32 -14z m-575 -183 c-3 -9 0 -12 9 -9 21 8 42 -19 28 -36 -6 -7 -8 -24
-5 -37 4 -15 3 -21 -5 -16 -6 3 -16 -3 -22 -14 -24 -45 -121 -80 -132 -47 -3
6 -6 33 -7 60 -2 36 1 47 13 47 19 0 46 -27 46 -46 0 -22 22 -16 59 17 30 28
32 32 18 46 -16 16 -53 11 -42 -6 10 -17 -16 -24 -31 -9 -18 17 -8 54 10 39 8
-7 16 -1 25 20 11 24 16 28 27 18 8 -7 12 -19 9 -27z m-222 -82 c12 -10 -14
-91 -30 -97 -23 -9 -14 -20 12 -15 18 3 25 0 25 -11 0 -14 -22 -27 -57 -33
-16 -3 -35 21 -31 40 2 9 -11 23 -32 34 -43 24 -50 64 -10 67 13 1 28 9 34 18
7 11 20 14 45 10 20 -3 40 -9 44 -13z m1230 -946 c44 -23 29 -44 -34 -44 -37
0 -38 -15 -1 -25 l27 -8 -30 -12 -30 -13 30 -6 c17 -4 44 -12 60 -18 17 -7 54
-11 83 -10 28 1 52 -2 52 -6 0 -4 -23 -20 -51 -36 -37 -20 -48 -31 -40 -39 6
-6 11 -14 11 -19 0 -17 -154 25 -183 50 -23 20 -35 7 -14 -15 25 -29 39 -73
27 -88 -8 -10 0 -15 40 -20 29 -4 54 -13 57 -21 3 -8 11 -14 19 -14 8 0 14 -9
14 -21 0 -27 -29 -89 -40 -86 -5 1 -15 -6 -22 -15 -7 -9 -26 -20 -42 -24 -26
-6 -27 -5 -17 15 7 11 15 21 19 21 4 0 8 15 9 33 0 18 -1 23 -4 10 -2 -12 -10
-20 -17 -17 -6 2 -23 -7 -36 -22 -17 -18 -21 -28 -12 -31 6 -3 12 -14 12 -24
0 -31 19 -59 39 -59 14 0 17 -6 13 -28 -3 -22 0 -28 16 -28 16 0 18 3 8 18 -8
14 -8 21 3 27 8 5 11 16 8 25 -5 13 1 16 29 16 45 0 85 -40 80 -79 -10 -77
-37 -131 -67 -131 -10 0 -21 -4 -24 -10 -3 -5 -17 -10 -30 -10 -13 0 -27 -4
-30 -10 -11 -18 -35 -11 -35 10 0 13 -7 20 -20 20 -10 0 -24 9 -30 20 -6 11
-17 20 -25 20 -9 0 -15 9 -15 21 0 13 -8 23 -21 26 -16 4 -19 11 -15 29 4 13
1 24 -7 27 -7 2 -12 20 -12 42 0 37 -2 40 -38 48 -21 5 -41 16 -44 23 -3 8
-11 14 -18 14 -6 0 -19 8 -29 19 -16 17 -15 20 12 49 29 31 27 52 -5 52 -7 0
-13 5 -13 10 0 6 -7 10 -15 10 -8 0 -24 9 -35 20 -13 13 -32 19 -55 18 -19 -1
-38 2 -42 5 -3 4 8 7 25 7 35 0 37 2 22 31 -6 11 -21 19 -36 19 -17 0 -23 4
-18 13 5 9 4 9 -5 1 -6 -6 -15 -24 -20 -41 -7 -23 -5 -35 7 -47 23 -23 12 -27
-57 -20 -70 8 -83 22 -51 54 19 19 20 24 7 38 -43 50 -21 92 28 54 28 -22 51
-19 72 7 9 12 12 12 13 3 0 -10 3 -10 15 2 22 22 19 27 -17 25 -18 -1 -58 8
-89 19 -30 11 -78 23 -107 27 -29 4 -52 10 -52 13 0 3 10 21 23 39 16 23 30
33 49 33 15 0 30 5 33 10 3 6 24 10 46 10 31 0 39 -4 39 -18 0 -13 13 -22 50
-31 45 -11 48 -14 34 -28 -8 -8 -13 -17 -11 -19 2 -2 55 -5 118 -6 63 0 121
-4 129 -8 8 -4 41 -19 73 -35 57 -28 80 -28 58 -1 -8 10 -9 16 -1 21 5 3 10
13 10 22 0 14 -2 14 -19 -1 -17 -16 -23 -16 -77 -2 -56 15 -88 39 -81 60 17
52 241 80 320 40z m-547 -419 c-19 -14 -29 -64 -17 -82 3 -6 40 -13 81 -17 68
-6 78 -10 112 -43 20 -19 39 -47 43 -62 3 -14 22 -51 42 -81 38 -57 50 -119
24 -128 -7 -2 -17 -15 -22 -29 -7 -19 -14 -24 -31 -20 -12 4 -28 1 -35 -4 -7
-6 -46 -13 -87 -15 -59 -3 -75 -1 -80 11 -3 8 -17 15 -30 15 -14 0 -33 9 -43
19 -10 11 -31 24 -46 30 -22 9 -26 15 -21 35 5 22 2 24 -46 31 -83 11 -79 58
4 53 28 -2 42 3 52 17 25 34 17 53 -26 65 -62 17 -86 81 -47 122 7 7 24 30 40
50 27 37 39 41 127 46 24 1 24 1 6 -13z m-263 -108 c60 -62 73 -114 37 -144
-11 -10 -20 -27 -20 -38 0 -11 -7 -33 -15 -49 -14 -26 -14 -30 1 -40 14 -11
22 -38 26 -101 1 -11 10 -27 20 -36 16 -14 16 -18 3 -35 -15 -19 -15 -18 -34
4 -11 12 -23 22 -28 22 -19 1 -53 50 -55 81 -2 19 -7 37 -11 40 -5 4 -2 21 7
38 17 31 17 32 -18 68 -28 30 -32 40 -23 51 9 11 5 20 -20 42 -45 41 -50 77
-16 116 25 27 33 30 68 26 30 -4 50 -16 78 -45z m178 -449 c1 -7 1 -16 1 -19
-1 -3 18 -16 41 -29 54 -30 52 -27 36 -46 -12 -15 -11 -16 17 -10 23 5 37 2
57 -14 15 -12 27 -17 27 -12 0 5 12 7 28 5 15 -3 46 -4 69 -4 48 1 62 -12 41
-37 -23 -27 -51 -137 -44 -169 11 -44 67 -153 80 -154 6 -1 17 -1 25 1 7 1 23
-7 35 -18 11 -10 45 -32 74 -47 33 -18 52 -35 52 -46 0 -10 12 -30 27 -45 22
-22 30 -25 45 -15 24 15 28 14 28 -9 0 -26 20 -26 27 0 3 11 12 20 20 20 13 0
13 -3 0 -24 -19 -29 -14 -36 30 -36 29 0 36 5 49 35 8 20 12 41 8 48 -4 7 4 2
17 -10 l23 -23 -37 -35 c-30 -28 -36 -40 -31 -60 8 -32 -4 -31 -50 0 -39 26
-66 32 -66 14 0 -12 40 -72 52 -77 9 -4 11 -42 2 -42 -3 0 -17 9 -31 20 -14
11 -34 20 -44 20 -10 0 -26 11 -35 25 -15 22 -18 23 -36 10 -18 -12 -24 -11
-50 8 -25 18 -30 19 -38 7 -9 -14 -14 -7 -11 13 1 5 -6 7 -15 5 -10 -2 -25
-26 -37 -56 -19 -49 -28 -58 -33 -29 -1 7 -12 52 -24 101 -22 88 -22 156 1
198 5 10 5 19 0 22 -15 9 -88 139 -101 179 -10 34 -9 44 9 87 12 27 21 53 21
59 0 16 -36 13 -71 -5 -35 -18 -145 -28 -154 -14 -3 6 -17 10 -31 10 -13 0
-24 4 -24 9 0 4 -13 24 -30 42 -16 19 -30 39 -30 46 0 21 38 101 52 106 22 9
28 8 29 -5z m-1651 -188 c16 -31 149 -56 164 -31 3 4 16 7 28 5 13 -2 45 -6
71 -9 47 -6 117 -52 117 -78 0 -6 7 -18 16 -28 17 -19 11 -39 -12 -39 -18 0
-18 -31 1 -56 8 -10 15 -29 15 -40 0 -12 7 -27 15 -34 10 -9 15 -9 15 -1 0 6
7 11 15 11 28 0 49 -94 23 -102 -6 -2 -13 -24 -14 -48 -3 -56 -33 -84 -81 -77
-18 3 -33 2 -33 -3 0 -4 -27 -22 -60 -39 -64 -33 -120 -41 -120 -16 0 14 -18
19 -97 28 -32 3 -33 3 -29 -35 2 -22 8 -44 15 -51 6 -6 11 -19 11 -28 0 -9 6
-22 14 -28 18 -15 10 -81 -18 -143 -18 -41 -25 -48 -49 -48 -16 0 -26 4 -22 9
3 6 -7 6 -27 0 -39 -11 -44 -4 -54 66 -4 27 -9 44 -11 38 -3 -7 -11 -13 -18
-13 -14 0 -26 76 -27 173 -1 61 -12 73 -28 31 -12 -31 -30 -23 -30 14 0 35
-12 53 -28 43 -17 -10 -6 -78 14 -89 11 -6 58 -159 71 -235 3 -15 9 -30 14
-33 5 -3 9 -20 9 -38 l0 -33 -72 3 c-40 1 -81 0 -90 -2 -28 -8 -21 -32 10 -36
21 -2 29 -11 38 -38 6 -19 16 -36 23 -38 19 -6 12 -31 -11 -43 -13 -7 -27 -18
-31 -25 -11 -18 -27 -18 -27 0 0 8 -16 32 -36 53 -20 21 -40 47 -44 58 -6 17
-9 14 -15 -18 -4 -21 -5 -58 -2 -83 l5 -44 -85 0 c-68 0 -85 3 -90 16 -3 9 -1
25 5 35 7 10 9 31 6 47 -5 22 -1 33 14 43 10 8 22 24 26 37 4 12 15 22 25 22
25 0 77 68 63 82 -6 6 -8 16 -5 23 2 8 -3 24 -11 38 -13 19 -15 43 -12 123 4
86 8 101 26 113 11 7 20 22 20 32 0 27 21 69 37 70 7 1 18 2 25 3 12 1 43 47
54 79 8 22 9 22 48 -8 21 -16 39 -22 53 -19 12 4 36 -1 54 -10 44 -22 45 -21
44 24 -1 42 -9 55 -47 74 -19 10 -23 20 -23 56 0 25 -4 50 -8 57 -4 6 -1 17 6
25 7 7 18 25 24 41 7 15 17 27 22 27 16 0 45 54 43 82 -1 15 7 37 20 52 28 31
34 32 48 6z m1527 -341 c8 -8 17 -8 31 0 11 6 28 11 36 11 18 0 84 -43 102
-68 18 -23 18 -46 0 -39 -8 3 -27 2 -42 -2 l-29 -7 33 -15 c17 -7 32 -17 32
-21 0 -10 -60 -58 -73 -59 -7 0 -25 -3 -41 -5 -49 -8 -146 53 -146 92 0 19 26
18 34 -1 8 -21 36 -19 36 3 -1 21 -29 56 -53 65 -30 11 -14 32 21 29 24 -3 32
1 32 12 0 19 11 21 27 5z m-189 -192 c2 -15 8 -25 13 -22 5 4 9 -1 9 -9 0 -9
7 -16 16 -16 11 0 14 -5 10 -17 -4 -9 -1 -20 6 -25 11 -8 11 -11 0 -15 -7 -3
-17 -16 -22 -29 -5 -13 -15 -23 -22 -22 -19 4 -22 -32 -4 -51 18 -19 12 -31
-15 -31 -20 0 -33 26 -16 34 7 3 3 4 -8 1 -14 -3 -23 2 -31 18 -6 12 -23 45
-38 73 -22 42 -25 56 -17 78 6 14 17 26 25 26 9 0 20 9 26 21 17 32 64 22 68
-14z m-193 -147 c16 0 12 -64 -4 -83 -11 -14 -11 -18 2 -23 18 -7 29 -42 15
-50 -6 -4 -5 -10 3 -15 12 -8 12 -11 -1 -18 -11 -8 -12 -15 -3 -33 25 -53 24
-57 -49 -142 l-72 -84 -34 26 c-27 21 -33 31 -30 54 3 16 -1 33 -9 39 -17 15
-17 63 2 99 11 22 23 30 42 30 31 0 63 26 63 52 0 10 7 18 15 18 18 0 19 -12
3 -28 -15 -15 -4 -26 17 -19 18 8 20 39 3 70 -17 30 -30 38 -50 33 -24 -6 -23
11 2 26 11 7 20 20 20 29 0 23 12 31 35 25 11 -3 25 -6 30 -6z m-335 -266 c36
-36 24 -124 -16 -124 -10 0 -8 -6 6 -20 31 -31 21 -77 -15 -64 -13 5 -16 4
-11 -4 9 -15 -64 -16 -117 -1 -37 10 -38 12 -35 47 2 28 -1 37 -12 37 -23 0
-26 -66 -3 -82 15 -12 -1 -13 -107 -11 -112 3 -125 5 -124 21 1 9 -5 17 -13
17 -8 0 -13 6 -10 13 21 51 21 52 5 39 -11 -9 -18 -10 -23 -2 -8 13 3 50 16
50 5 0 12 18 15 40 8 51 20 59 28 20 6 -34 50 -80 76 -80 9 0 36 13 58 30 23
16 51 30 61 30 11 0 23 5 26 10 4 6 27 21 53 35 55 29 113 28 142 -1z m-1494
-47 c-4 -19 1 -28 31 -48 40 -26 54 -49 29 -49 -18 0 -21 -15 -6 -25 6 -3 10
-17 10 -31 l0 -24 -165 0 -165 0 0 23 c0 31 70 97 104 97 15 0 34 9 43 20 19
21 48 26 58 10 8 -13 42 9 48 32 3 10 8 18 12 18 4 0 5 -11 1 -23z"/>
<path d="M7595 8566 c-55 -24 -70 -54 -66 -134 1 -13 17 -39 37 -58 l35 -35
-17 -32 c-9 -18 -22 -42 -28 -54 -6 -13 -14 -23 -18 -23 -5 0 -8 -5 -8 -11 0
-7 -13 -33 -29 -59 -16 -27 -27 -51 -24 -54 4 -3 1 -6 -5 -6 -7 0 -12 -6 -12
-14 0 -8 -6 -21 -12 -28 -21 -23 -48 -78 -38 -78 5 0 12 9 15 20 3 11 10 20
15 20 4 0 11 11 14 25 4 14 11 25 16 25 6 0 10 5 10 11 0 9 91 170 141 249 5
8 15 26 21 40 17 35 16 34 32 21 10 -8 16 -9 21 -1 3 5 -1 10 -9 10 -23 0 -20
28 4 42 26 17 26 48 1 48 -11 0 -23 4 -26 10 -9 14 -57 -20 -51 -36 3 -8 0
-11 -10 -7 -9 3 -14 -1 -15 -13 0 -13 -4 -10 -11 9 -17 47 -3 75 43 87 34 9
38 14 29 26 -15 17 -17 17 -55 0z"/>
<path d="M7095 7488 c-19 -29 -60 -87 -90 -128 -31 -41 -58 -82 -62 -90 -3 -8
-12 -22 -19 -30 -12 -14 -9 -19 17 -34 l31 -18 24 28 c13 16 23 35 24 42 0 6
4 12 9 12 5 0 14 13 21 29 6 16 18 32 26 35 8 3 14 12 14 20 0 8 3 16 8 18 4
2 27 32 51 67 46 66 46 65 -1 91 -14 8 -23 1 -53 -42z"/>
<path d="M7180 7450 c-14 -22 -28 -40 -32 -40 -5 0 -8 -5 -8 -10 0 -6 -34 -59
-75 -119 l-74 -109 24 -16 c34 -23 41 -20 59 19 9 19 21 35 26 35 5 0 12 11
16 25 3 14 10 25 14 25 4 0 25 26 46 57 22 32 44 64 51 70 6 7 15 22 18 33 3
11 11 20 16 20 15 0 10 -25 -10 -46 -10 -11 -21 -29 -25 -40 -3 -10 -17 -31
-30 -45 -14 -15 -23 -29 -20 -32 2 -2 -2 -10 -11 -17 -8 -7 -15 -19 -15 -26 0
-8 -5 -14 -10 -14 -6 0 -15 -10 -20 -22 -14 -31 -33 -62 -45 -70 -12 -9 23
-37 47 -38 11 0 20 10 24 25 3 14 10 25 15 25 5 0 15 12 23 28 8 15 28 43 44
62 17 19 29 37 26 41 -5 9 25 33 32 26 4 -3 -7 -23 -23 -44 -16 -21 -33 -46
-36 -55 -4 -10 -11 -18 -17 -18 -5 0 -10 -5 -10 -10 0 -12 -39 -71 -54 -81
-11 -9 2 -30 17 -28 7 1 19 1 27 0 13 -1 13 -2 0 -11 -12 -8 -13 -10 -1 -10 8
0 27 -15 42 -32 26 -32 27 -33 47 -15 11 10 23 14 26 9 3 -6 -1 -12 -9 -16 -8
-3 -12 -12 -9 -21 4 -10 19 6 49 53 24 37 65 100 91 140 25 40 43 76 40 80 -4
3 -11 0 -16 -8 -5 -8 -12 -11 -15 -8 -4 4 5 23 20 43 15 19 26 37 24 38 -2 1
-14 11 -27 21 -22 19 -23 19 -42 -2 -11 -12 -20 -24 -20 -27 0 -3 -10 -20 -22
-38 -13 -18 -24 -34 -25 -36 -1 -1 -7 0 -13 4 -7 4 -8 10 -3 14 10 7 43 58 43
66 0 3 -4 5 -9 5 -15 0 -49 -78 -38 -89 14 -14 1 -41 -19 -41 -14 0 -15 2 -3
18 11 14 10 13 -9 -2 -12 -11 -22 -25 -22 -32 0 -19 -20 -28 -33 -14 -9 9 -9
11 2 8 8 -2 17 6 19 17 2 11 10 25 18 32 10 7 11 13 5 17 -6 4 -8 13 -5 21 4
8 11 12 17 8 6 -3 7 -1 3 6 -4 6 0 14 11 18 10 4 24 15 32 26 7 10 19 16 26
13 7 -2 21 4 30 14 16 18 14 21 -47 64 -34 25 -67 49 -73 53 -15 12 -64 43
-68 43 -1 0 -14 -18 -27 -40z"/>
<path d="M6855 7140 c-16 -27 -33 -50 -37 -50 -5 0 -8 -7 -8 -15 0 -9 -7 -18
-15 -21 -8 -4 -15 -12 -15 -19 0 -7 -15 -32 -33 -56 -41 -54 -54 -84 -32 -75
10 3 15 -1 15 -13 0 -32 23 -29 47 6 13 19 23 38 23 43 0 4 3 10 8 12 4 2 20
23 37 48 16 25 32 47 35 50 3 3 20 27 39 53 32 46 32 49 15 68 -27 30 -47 23
-79 -31z"/>
<path d="M6954 7116 c-125 -184 -154 -228 -154 -235 0 -5 -7 -14 -15 -21 -14
-11 -13 -14 2 -25 9 -7 24 -10 32 -7 9 3 12 1 7 -6 -5 -8 -2 -10 8 -6 9 3 16
18 16 32 0 16 10 35 27 49 14 13 23 23 20 23 -3 0 -1 14 4 30 6 17 15 30 20
30 5 0 9 6 9 14 0 8 7 16 15 20 8 3 15 12 15 21 0 8 4 15 10 15 5 0 7 -8 4
-17 -5 -14 -4 -15 4 -4 6 8 8 21 4 30 -3 9 -2 13 2 9 6 -5 46 25 46 35 0 2
-12 12 -27 23 l-28 21 -21 -31z"/>
<path d="M7031 7068 c-28 -53 -40 -71 -53 -79 -10 -7 -7 -14 13 -35 24 -24 28
-25 40 -10 8 9 20 23 27 31 6 7 12 17 12 20 0 4 9 18 20 32 13 17 20 20 20 11
0 -8 -9 -26 -20 -39 -31 -37 -35 -44 -38 -59 -2 -8 -8 -16 -13 -18 -5 -2 -9
-8 -9 -14 0 -6 -12 -27 -27 -47 -32 -41 -48 -66 -65 -99 -10 -19 -8 -25 8 -36
16 -12 20 -12 27 -1 4 8 15 11 24 8 11 -4 14 -2 11 8 -3 8 1 19 8 26 7 7 11
25 9 40 -3 25 -2 26 11 8 17 -24 18 -40 1 -57 -7 -7 -16 -21 -20 -30 -3 -10
-11 -18 -16 -18 -17 0 -1 -28 27 -46 24 -16 26 -16 38 0 7 10 15 13 18 7 4 -5
2 -12 -4 -16 -5 -3 -10 -11 -10 -17 0 -7 9 -2 20 10 11 12 20 25 20 30 0 5 7
15 16 23 14 12 14 14 0 25 -15 10 -15 13 1 25 15 12 16 12 10 -3 -12 -32 8
-18 35 25 14 23 44 68 67 100 46 65 49 71 22 64 -12 -3 -18 0 -16 7 3 6 -7 20
-22 30 -26 19 -26 19 -45 -5 -10 -13 -22 -28 -26 -34 -4 -5 -19 -28 -32 -50
-13 -22 -30 -46 -36 -52 -7 -7 -14 -18 -17 -25 -2 -7 -8 -9 -13 -5 -5 4 -2 12
6 17 13 9 13 10 0 10 -13 1 -13 2 0 13 8 7 17 21 18 32 2 11 9 24 15 28 8 6 5
7 -5 3 -10 -3 -18 -1 -18 4 0 6 5 10 11 10 5 0 7 5 4 10 -3 6 -1 10 4 10 6 0
11 7 11 15 0 8 5 15 10 15 6 0 10 7 10 15 0 13 4 14 21 4 26 -13 48 2 27 20
-36 31 -108 81 -116 81 -5 0 -14 -10 -21 -22z"/>
<path d="M6649 6843 c-8 -16 -18 -31 -24 -35 -5 -4 -6 -8 -1 -8 5 0 -1 -9 -13
-19 -16 -14 -18 -21 -9 -24 8 -3 6 -6 -6 -6 -12 -1 -16 -6 -12 -17 3 -8 2 -13
-3 -10 -5 3 -14 -1 -21 -9 -7 -8 -9 -15 -4 -15 5 0 5 -4 -1 -8 -18 -13 -50
-56 -36 -47 19 11 3 -36 -17 -51 -14 -10 -13 -13 7 -23 27 -15 48 0 83 58 12
20 24 38 28 41 3 3 23 32 45 65 22 33 46 66 54 74 11 13 10 18 -13 38 -34 29
-40 29 -57 -4z"/>
<path d="M6735 6790 c-3 -11 -11 -20 -16 -20 -5 0 -9 -6 -9 -14 0 -7 -7 -19
-15 -26 -9 -7 -13 -20 -10 -29 3 -8 3 -12 -1 -8 -4 3 -15 -3 -25 -15 -22 -25
-24 -32 -6 -22 6 3 0 -5 -15 -18 -16 -14 -28 -29 -28 -33 0 -4 -7 -13 -15 -19
-8 -6 -16 -22 -17 -36 -2 -19 2 -26 20 -28 12 -2 20 -8 17 -13 -14 -22 3 -6
24 22 13 18 19 29 12 25 -6 -4 8 23 31 59 24 36 49 76 55 88 7 12 17 21 22 20
5 -1 15 5 23 14 9 12 9 15 1 9 -7 -4 -13 -3 -13 3 0 5 10 13 22 17 l22 7 -23
18 c-30 24 -48 24 -56 -1z"/>
<path d="M6819 6743 c-1 -10 -1 -25 0 -33 2 -13 1 -13 -8 0 -8 12 -11 11 -17
-5 -4 -11 -15 -26 -23 -34 -10 -8 -7 -8 10 2 21 12 26 13 26 2 0 -8 -5 -13
-11 -12 -6 1 -10 -6 -10 -15 1 -10 -4 -14 -13 -11 -7 3 -13 2 -12 -3 3 -20 -2
-34 -12 -34 -6 0 -8 8 -5 18 4 9 -5 4 -18 -13 -14 -16 -25 -34 -26 -38 0 -5
-7 -15 -16 -24 -8 -9 -13 -22 -10 -30 3 -8 2 -12 -3 -9 -5 3 -15 -2 -22 -11
-8 -9 -9 -14 -3 -10 6 3 17 -5 24 -18 7 -14 16 -25 19 -25 3 0 26 30 51 66 25
36 51 72 58 80 7 8 10 14 5 14 -4 1 3 10 16 20 13 11 19 20 15 20 -5 1 1 9 13
19 12 10 19 21 16 25 -3 3 2 15 12 26 18 20 18 21 -3 27 -12 3 -22 9 -22 14 0
17 -30 9 -31 -8z"/>
<path d="M6878 6678 c-14 -18 -32 -47 -41 -65 -9 -17 -22 -37 -29 -45 -33 -35
-89 -131 -84 -145 5 -12 9 -13 21 -3 10 9 15 9 15 1 0 -6 7 -11 15 -11 18 0
20 17 3 22 -9 3 -9 6 0 12 7 4 12 3 12 -2 0 -6 10 -8 23 -4 21 5 21 4 6 -14
-9 -10 -18 -26 -21 -34 -5 -17 32 -50 56 -50 9 0 16 -6 16 -12 0 -14 49 41 50
55 0 10 43 71 53 75 4 2 7 8 7 13 0 5 20 38 45 74 25 36 41 65 34 65 -6 0 -29
14 -50 31 -21 17 -39 26 -39 19 0 -10 -37 -68 -51 -80 -3 -3 -8 -13 -12 -22
-3 -10 -14 -18 -23 -18 -12 0 -14 -3 -6 -13 8 -9 6 -16 -7 -24 -24 -15 -42 -2
-34 25 3 12 9 19 14 16 13 -8 11 10 -3 24 -10 10 -8 14 10 19 15 4 21 11 17
20 -4 11 -1 13 10 9 11 -4 15 -1 13 11 -2 9 3 18 10 20 6 3 12 -1 12 -7 0 -9
4 -9 15 0 13 11 13 15 3 21 -9 6 -8 9 6 9 17 0 17 2 -4 20 -30 26 -33 26 -62
-12z"/>
<path d="M6450 6557 c0 -8 -6 -20 -14 -26 -8 -7 -12 -21 -9 -31 4 -15 0 -20
-13 -20 -11 0 -28 -14 -39 -30 -11 -16 -23 -30 -27 -30 -5 0 -8 -5 -8 -11 0
-6 8 -8 19 -4 32 10 37 -16 8 -37 -15 -11 -27 -26 -27 -34 0 -8 -7 -14 -15
-14 -11 0 -10 7 6 35 12 19 17 35 12 35 -12 0 -38 -29 -46 -52 -4 -10 -11 -18
-17 -18 -5 0 -10 -5 -10 -10 0 -6 11 -8 28 -4 25 7 26 6 12 -12 -8 -10 -10
-15 -5 -11 5 4 14 -2 21 -14 11 -21 11 -21 22 10 6 17 16 31 23 31 6 0 9 8 6
20 -4 15 0 20 14 20 15 0 18 5 14 23 -3 15 4 32 21 52 14 17 23 24 20 18 -5
-9 -2 -11 8 -7 9 3 16 9 16 14 0 4 9 17 20 30 27 31 25 45 -10 70 -23 16 -30
18 -30 7z"/>
<path d="M6519 6483 c-8 -16 -16 -30 -19 -33 -14 -14 -50 -70 -50 -79 0 -5 -7
-11 -15 -15 -8 -3 -15 -10 -15 -17 0 -6 -14 -29 -31 -50 l-31 -39 24 -20 c27
-22 28 -23 47 -11 8 5 10 14 6 21 -5 9 -4 11 3 6 7 -4 12 -1 12 7 0 8 7 17 15
21 8 3 15 12 15 19 0 8 6 20 14 27 8 6 13 17 10 25 -3 7 0 16 5 20 6 3 9 10 6
15 -3 5 -1 11 5 15 5 3 10 -2 11 -12 1 -12 3 -10 8 7 4 14 13 24 20 22 7 -1
11 3 9 10 -3 7 4 21 15 30 19 17 19 18 -7 29 -14 7 -26 16 -26 21 0 17 -17 7
-31 -19z"/>
<path d="M6676 6381 c-9 -9 -13 -21 -9 -24 3 -4 2 -7 -3 -7 -5 0 -20 -20 -34
-45 -14 -25 -28 -45 -32 -45 -5 0 -8 -6 -8 -14 0 -8 -11 -23 -25 -34 -13 -11
-22 -22 -18 -25 3 -3 -2 -13 -11 -22 -21 -22 -20 -45 2 -45 31 0 62 12 56 22
-3 5 2 21 12 36 10 15 17 33 16 40 -2 6 2 12 9 12 6 0 9 7 5 15 -3 8 -1 15 5
15 6 0 7 5 3 12 -5 7 -2 9 8 5 12 -4 14 -1 11 14 -3 11 1 21 11 25 9 3 14 9
12 13 -3 4 4 12 15 19 10 7 19 9 18 5 -4 -22 2 -43 12 -43 5 0 7 5 3 12 -4 6
0 17 10 23 17 13 14 16 -40 48 -6 4 -19 -2 -28 -12z"/>
<path d="M6753 6322 c-26 -40 -37 -49 -53 -45 -13 4 -13 3 0 -6 13 -10 12 -14
-6 -29 -11 -10 -19 -23 -16 -30 2 -6 0 -12 -5 -12 -5 0 -19 -20 -33 -45 -14
-25 -28 -45 -33 -45 -4 0 -5 -4 -2 -10 3 -5 1 -10 -6 -10 -14 0 29 -39 45 -41
6 -1 17 0 25 1 9 1 12 -4 8 -14 -4 -9 -2 -16 3 -16 6 0 10 4 10 8 0 11 148
235 164 247 9 8 0 18 -36 42 l-48 33 -17 -28z"/>
<path d="M2457 6288 c-47 -126 -108 -331 -100 -338 4 -4 18 -11 30 -14 20 -6
22 -3 28 41 5 43 58 292 71 336 11 36 -14 15 -29 -25z"/>
<path d="M6215 6224 c-16 -25 -36 -56 -43 -70 -7 -13 -17 -24 -23 -24 -5 0 -9
-5 -9 -10 0 -11 -39 -71 -53 -81 -4 -3 -1 -12 8 -19 8 -7 15 -9 15 -4 0 5 9
-2 19 -15 l18 -23 59 88 c32 49 61 91 64 94 3 3 15 19 26 36 l22 30 -32 22
c-18 12 -34 22 -37 22 -2 -1 -17 -21 -34 -46z"/>
<path d="M6305 6173 c-16 -25 -34 -52 -40 -61 -5 -10 -22 -33 -37 -53 -16 -20
-28 -40 -28 -45 0 -4 -8 -16 -17 -26 -15 -17 -15 -19 3 -33 33 -26 54 -36 54
-26 0 5 6 16 13 23 19 21 57 76 57 84 0 3 14 23 30 44 17 21 30 43 30 48 0 6
7 15 16 20 20 11 13 24 -24 50 l-27 19 -30 -44z"/>
<path d="M6407 6139 c-9 -10 -17 -23 -17 -28 0 -5 -3 -11 -7 -13 -12 -5 -53
-66 -53 -77 0 -6 -6 -14 -12 -18 -7 -4 -19 -17 -26 -28 -42 -68 -40 -95 5 -54
21 19 25 20 20 6 -4 -10 -7 -25 -7 -33 0 -9 -5 -12 -12 -8 -7 4 -8 3 -4 -5 6
-9 11 -9 21 -1 8 7 19 9 26 5 8 -6 7 -10 -2 -16 -11 -7 -10 -11 6 -23 22 -17
45 -21 45 -8 0 4 12 20 27 36 15 16 28 38 28 49 1 10 6 22 11 25 5 4 16 20 24
37 22 44 42 65 62 65 25 0 22 12 -9 34 -28 21 -48 15 -67 -20 -6 -10 -24 -36
-39 -56 -16 -21 -26 -38 -22 -38 3 0 0 -7 -9 -15 -31 -31 -36 -10 -6 26 11 13
24 29 30 36 5 7 10 16 10 21 0 5 7 15 15 22 8 7 12 16 9 21 -3 5 -1 9 4 9 24
0 19 31 -7 49 -27 20 -28 20 -44 0z"/>
<path d="M6559 6031 c-9 -9 -19 -24 -22 -33 -4 -10 -11 -18 -17 -18 -6 0 -9
-4 -5 -9 3 -5 -5 -17 -17 -25 -12 -9 -19 -16 -14 -16 5 0 2 -8 -6 -17 -9 -10
-19 -28 -22 -40 -4 -13 -12 -23 -17 -23 -5 0 -9 -7 -9 -15 0 -7 -8 -19 -17
-25 -16 -10 -15 -11 5 -6 13 2 21 2 18 -1 -8 -9 24 -43 41 -43 7 0 13 -6 13
-12 0 -18 31 22 110 145 53 82 65 107 50 102 -14 -4 -20 -2 -18 6 2 6 -10 20
-27 29 -28 17 -31 17 -46 1z"/>
<path d="M6052 5995 c4 -4 2 -13 -5 -20 -7 -7 -19 -23 -27 -35 -8 -12 -23 -31
-32 -42 -10 -12 -18 -27 -18 -33 0 -7 -7 -15 -15 -19 -8 -3 -15 -12 -15 -20 0
-7 -7 -16 -15 -20 -23 -8 -18 -34 11 -61 l26 -25 22 28 c11 15 24 32 29 37 52
65 94 134 84 139 -7 2 -4 5 6 5 29 2 19 28 -20 51 -21 12 -35 19 -31 15z"/>
<path d="M6133 5923 c-4 -10 -9 -20 -12 -23 -14 -12 -93 -130 -112 -167 -7
-13 -17 -23 -23 -23 -6 0 7 -11 28 -24 l40 -24 18 23 c10 13 18 26 18 29 0 9
43 70 53 74 4 2 5 8 2 12 -3 5 4 15 16 24 14 9 19 21 15 31 -3 9 -2 14 3 11 5
-3 15 1 22 10 11 13 8 19 -17 39 -35 29 -43 30 -51 8z"/>
<path d="M6224 5872 c-5 -4 -20 -24 -33 -44 -18 -31 -20 -38 -7 -38 8 0 22
-10 30 -21 l15 -22 25 29 c13 16 28 25 32 21 5 -4 4 -11 -1 -15 -15 -10 -55
-70 -55 -81 0 -11 -31 -24 -39 -16 -3 3 1 10 9 15 8 6 11 10 6 10 -4 0 -26
-19 -47 -42 -38 -43 -53 -39 -24 6 14 21 14 24 -1 37 -14 11 -18 11 -22 1 -2
-7 -9 -18 -16 -25 -26 -26 -23 -41 13 -59 42 -22 41 -21 41 -5 0 22 37 60 45
47 4 -6 0 -19 -8 -28 -31 -37 -29 -58 8 -78 16 -9 23 -7 38 12 10 13 19 33 20
44 1 13 6 19 15 15 7 -2 10 0 7 5 -4 6 10 27 30 48 19 20 38 47 42 60 4 18 8
20 20 11 8 -7 10 -15 5 -18 -5 -3 -22 -28 -37 -56 -16 -27 -34 -53 -40 -57 -5
-4 -6 -8 -1 -8 5 0 1 -9 -9 -20 -15 -17 -16 -22 -4 -37 12 -14 12 -16 -1 -11
-30 11 -20 -37 12 -55 34 -19 48 -21 48 -7 0 11 128 202 141 211 5 3 -9 16
-31 30 -22 13 -40 28 -40 33 0 4 -7 5 -16 2 -10 -4 -18 0 -21 13 -6 23 -49 44
-74 36 -11 -4 -19 -2 -19 4 0 6 5 11 12 11 7 0 -3 11 -22 25 -19 14 -34 25
-34 25 -1 0 -6 -4 -12 -8z"/>
<path d="M2360 5738 c-11 -24 -20 -52 -20 -64 0 -35 -92 -63 -288 -86 -85 -10
-95 -14 -103 -35 -8 -21 -15 -24 -47 -22 -86 6 -92 3 -92 -41 0 -37 2 -40 28
-40 17 0 37 -9 48 -21 10 -11 34 -27 53 -35 25 -10 31 -17 23 -27 -5 -6 -13
-31 -17 -54 -4 -24 -11 -43 -16 -43 -5 0 -9 -4 -9 -10 0 -5 13 -10 29 -10 17
0 33 5 36 10 9 14 31 12 33 -2 1 -7 4 -27 8 -45 3 -18 -1 -55 -10 -86 -28 -95
-19 -117 31 -77 32 25 42 19 40 -23 -3 -41 -13 -57 -38 -57 -11 0 -38 -17 -62
-38 -23 -21 -71 -60 -106 -88 l-64 -49 32 -3 c69 -7 274 75 305 122 17 27 17
28 -1 42 -10 7 -22 14 -26 14 -5 0 -5 5 -2 10 3 6 35 10 71 10 36 0 81 7 101
15 19 8 47 15 62 15 25 0 67 15 315 109 60 22 112 41 117 41 4 0 29 9 55 20
31 14 44 24 37 31 -5 5 -50 16 -99 25 -49 9 -134 29 -190 45 -56 16 -122 29
-147 29 -26 0 -66 7 -89 16 -44 17 -108 69 -108 88 -1 31 -38 52 -114 65 -44
7 -85 15 -93 18 -26 10 -12 22 35 28 26 4 60 11 76 16 16 5 46 9 67 9 21 0 41
5 44 10 3 6 26 10 49 10 42 0 44 2 50 34 4 19 12 39 20 45 7 6 21 29 31 51 15
32 15 42 5 55 -21 25 -40 17 -60 -27z"/>
<path d="M5871 5732 c0 -7 -7 -20 -13 -28 -7 -8 -18 -20 -23 -27 -11 -13 -95
-133 -109 -156 -7 -11 -4 -13 12 -9 12 4 20 3 18 0 -6 -10 16 -27 34 -27 8 0
24 14 35 30 11 17 25 36 33 44 7 7 11 20 8 27 -3 9 1 11 12 7 9 -3 14 -3 10 2
-4 4 2 16 14 26 20 18 20 19 2 20 -14 0 -15 2 -4 6 8 3 23 12 32 21 17 14 17
16 -4 34 -12 10 -27 17 -34 14 -7 -3 -15 3 -17 12 -3 9 -5 11 -6 4z"/>
<path d="M5936 5636 c-14 -19 -26 -37 -26 -41 0 -6 -54 -81 -80 -112 -5 -7
-10 -16 -10 -20 0 -11 53 -45 65 -42 12 4 55 66 55 79 0 6 5 10 10 10 6 0 15
10 20 23 15 33 33 61 48 70 21 14 13 35 -20 51 -17 9 -32 16 -33 16 -2 0 -14
-15 -29 -34z"/>
<path d="M6033 5596 c-6 -8 -9 -16 -6 -19 3 -3 -4 -12 -16 -19 -12 -7 -21 -16
-21 -21 0 -4 -18 -35 -40 -68 -22 -33 -40 -64 -40 -68 0 -3 13 -14 29 -24 27
-16 29 -16 48 6 10 12 27 34 36 49 12 19 23 26 35 22 14 -5 14 -4 2 5 -12 9
-11 14 8 40 12 17 22 33 22 37 0 4 7 15 16 25 14 16 14 18 -5 24 -12 3 -21 11
-21 16 0 14 -33 10 -47 -5z"/>
<path d="M1615 5573 c-11 -8 -34 -63 -42 -100 -5 -22 6 -30 21 -15 4 4 19 7
33 7 15 0 28 6 30 13 3 7 -4 12 -17 12 -12 0 -19 4 -16 8 3 5 19 7 36 4 30 -4
31 -5 25 -46 -5 -32 -3 -45 9 -55 20 -17 26 -11 43 37 18 53 16 62 -12 62 -32
0 -32 13 1 39 15 12 22 22 15 22 -6 1 -23 2 -38 4 -16 1 -39 5 -53 8 -14 4
-29 4 -35 0z"/>
<path d="M6123 5553 c-7 -2 -13 -10 -13 -16 0 -6 -7 -19 -17 -29 -15 -17 -15
-18 3 -18 14 0 16 -2 6 -9 -12 -7 -18 -25 -21 -54 -1 -5 -10 -5 -21 -2 -15 5
-22 0 -29 -18 -6 -14 -14 -28 -19 -31 -15 -9 -2 -45 21 -61 24 -17 35 -8 68
54 11 22 24 41 28 41 8 0 28 37 29 53 0 5 11 17 23 28 l23 20 -29 24 c-29 26
-32 27 -52 18z"/>
<path d="M6194 5474 c-10 -14 -27 -35 -36 -46 -10 -11 -15 -25 -12 -29 3 -5
-1 -9 -9 -9 -8 0 -18 -11 -21 -25 -4 -14 -11 -25 -16 -25 -6 0 -10 -9 -10 -20
0 -11 -4 -20 -10 -20 -19 0 -9 -15 23 -35 56 -34 66 -36 77 -15 13 24 13 33 0
25 -5 -3 -10 -1 -10 5 0 7 8 9 20 5 12 -4 20 -2 20 5 0 6 11 26 25 44 14 18
25 38 25 44 0 7 3 12 8 12 4 0 15 14 24 30 14 25 15 30 3 30 -8 0 -15 4 -15 8
0 7 -52 42 -63 42 -2 0 -13 -12 -23 -26z"/>
<path d="M5689 5472 c-8 -10 -27 -38 -44 -62 -16 -25 -32 -47 -35 -50 -4 -3
-17 -23 -30 -44 l-23 -39 26 5 c21 4 27 2 25 -11 -2 -10 5 -17 19 -19 15 -2
26 6 39 27 10 17 22 31 26 31 4 0 8 5 8 11 0 5 16 31 35 56 19 25 35 52 35 60
0 19 -28 27 -45 13 -9 -8 -15 -8 -15 -2 0 6 5 12 11 14 7 2 6 8 -3 16 -11 9
-17 8 -29 -6z"/>
<path d="M5783 5413 c-4 -10 -11 -22 -15 -28 -30 -37 -78 -105 -78 -111 0 -4
-8 -16 -17 -26 -15 -17 -15 -19 3 -36 29 -28 50 -32 65 -14 30 36 50 73 44 83
-4 5 -2 8 3 7 14 -4 75 81 69 95 -3 7 -19 20 -36 30 -30 18 -31 18 -38 0z"/>
<path d="M5332 5399 c-11 -17 -23 -19 -102 -18 -49 0 -94 -2 -99 -6 -6 -3 -11
1 -11 9 0 19 -37 31 -54 17 -6 -5 -22 -7 -35 -4 -36 9 -43 -16 -14 -53 13 -18
22 -38 19 -43 -8 -13 33 -41 59 -41 12 0 26 -5 32 -11 10 -10 63 -2 63 10 0 4
22 13 50 20 48 12 51 12 82 -14 18 -15 39 -39 47 -53 l14 -26 33 39 c19 22 37
48 40 58 7 21 -14 77 -28 77 -6 0 -27 13 -47 29 -36 29 -38 29 -49 10z"/>
<path d="M5969 5303 c-1 -4 -1 -12 0 -16 1 -5 -3 -6 -8 -2 -6 3 -15 -3 -20
-14 -16 -29 -13 -38 4 -15 13 17 14 18 15 1 0 -10 -7 -20 -15 -23 -8 -4 -15
-15 -15 -25 0 -16 -5 -18 -25 -13 -15 4 -25 2 -25 -5 0 -6 7 -8 15 -5 18 7 19
0 4 -27 -7 -14 -16 -18 -30 -14 -11 4 -19 2 -19 -5 0 -6 5 -8 10 -5 10 6 14
-7 11 -33 -1 -8 3 -20 10 -29 11 -13 17 -11 41 19 15 18 28 28 28 21 0 -6 -7
-19 -16 -27 -9 -9 -13 -24 -9 -34 6 -21 52 -47 74 -43 7 1 10 -2 6 -8 -3 -6
-3 -11 0 -11 9 0 44 42 45 53 0 8 5 16 68 108 l31 46 -55 34 c-31 19 -61 39
-68 45 -19 18 -56 35 -57 27z"/>
<path d="M5504 5204 c-22 -31 -44 -61 -49 -67 -6 -7 -18 -24 -28 -40 -17 -27
-17 -28 10 -52 27 -24 63 -33 63 -16 0 4 22 37 48 72 27 35 51 72 55 82 8 22
-1 47 -18 47 -8 0 -20 6 -28 14 -13 13 -19 8 -53 -40z"/>
<path d="M5605 5153 c-16 -25 -34 -52 -40 -61 -5 -10 -12 -19 -15 -22 -3 -3
-15 -19 -27 -37 l-23 -32 34 -20 c38 -24 58 -20 75 12 13 26 34 60 41 67 14
14 50 70 50 78 0 5 -15 21 -32 34 l-33 25 -30 -44z"/>
<path d="M5720 5127 c0 -8 -7 -17 -15 -21 -8 -3 -15 -10 -15 -16 0 -10 -46
-77 -80 -117 -17 -21 -11 -38 21 -57 30 -17 30 -17 49 4 11 12 22 31 26 42 4
14 11 17 27 13 18 -5 19 -4 7 4 -13 10 -13 12 0 21 8 5 12 10 7 10 -4 0 4 18
17 39 l25 39 -34 27 c-25 18 -35 22 -35 12z"/>
<path d="M5803 5071 c-16 -11 -24 -41 -9 -35 28 11 24 -13 -7 -48 -18 -20 -40
-48 -50 -63 -10 -14 -21 -23 -25 -21 -18 11 -6 -38 13 -50 61 -42 128 -84 135
-84 10 0 130 176 130 190 0 5 -7 6 -17 3 -9 -4 -14 -2 -10 3 3 5 -10 20 -29
33 -26 18 -38 21 -46 13 -18 -18 -30 -14 -20 6 8 13 3 21 -23 38 -18 12 -37
19 -42 15z"/>
<path d="M3155 5037 c-4 -14 -4 -30 -1 -36 4 -6 0 -24 -8 -40 -27 -51 -30
-102 -8 -151 11 -25 23 -61 26 -80 5 -27 40 -119 52 -138 2 -2 26 14 56 36 29
22 68 47 85 56 l33 16 -31 55 c-23 41 -32 73 -38 130 -4 49 -12 80 -22 86 -23
14 -37 10 -32 -10 3 -10 0 -22 -6 -25 -7 -5 -11 4 -11 23 0 21 -8 36 -27 50
-16 11 -36 28 -45 37 -16 15 -17 15 -23 -9z"/>
<path d="M5364 5003 c-53 -72 -94 -134 -94 -140 0 -5 16 -18 36 -31 34 -22 37
-23 55 -6 10 9 19 21 19 26 0 8 48 77 79 114 10 12 -3 28 -46 52 -29 16 -26
16 -49 -15z"/>
<path d="M5456 4936 c-14 -19 -26 -39 -26 -44 0 -6 -3 -12 -7 -14 -13 -5 -53
-67 -53 -80 1 -7 16 -23 34 -34 l34 -22 43 62 c85 119 83 112 45 141 -18 14
-35 25 -38 25 -3 0 -17 -15 -32 -34z"/>
<path d="M5556 4888 c-39 -54 -95 -144 -96 -154 0 -6 16 -18 35 -27 35 -17 36
-17 45 8 5 14 14 25 20 25 5 0 10 5 10 10 0 12 40 71 55 82 6 4 6 8 1 8 -5 0
-3 7 4 15 7 9 11 17 9 18 -16 12 -59 37 -62 37 -2 0 -12 -10 -21 -22z"/>
<path d="M5654 4835 c3 -8 1 -15 -5 -15 -6 0 -7 -4 -4 -10 4 -6 -1 -7 -11 -3
-14 5 -16 2 -12 -15 4 -12 3 -20 -2 -17 -9 5 -31 -19 -29 -31 4 -23 -2 -33
-17 -27 -13 5 -15 2 -9 -17 6 -17 4 -21 -6 -14 -10 6 -10 3 1 -12 17 -22 40
-38 55 -39 6 0 12 -4 15 -10 2 -5 18 -19 35 -31 22 -15 35 -18 48 -12 16 8 18
7 12 -14 -9 -30 1 -18 52 57 67 101 68 103 41 127 -13 11 -38 27 -55 34 -18 8
-33 19 -33 24 0 6 -5 10 -11 10 -6 0 -17 7 -25 15 -9 8 -22 15 -31 15 -9 0
-13 -6 -9 -15z"/>
<path d="M5191 4755 c-51 -75 -62 -105 -39 -105 6 0 22 -10 35 -21 l22 -22 20
24 c28 33 26 39 -10 39 -28 0 -30 2 -27 33 2 26 8 33 30 35 18 2 31 -3 39 -17
12 -19 14 -18 36 12 31 42 29 50 -16 75 l-39 22 -51 -75z"/>
<path d="M5315 4728 c-10 -18 -21 -35 -24 -38 -11 -10 -47 -65 -54 -83 -4 -12
-1 -20 11 -24 9 -3 25 -13 35 -21 16 -14 19 -14 35 4 15 18 80 112 96 141 6
11 -50 53 -71 53 -5 0 -17 -15 -28 -32z"/>
<path d="M2595 4575 c1 -116 3 -124 31 -176 65 -117 88 -212 100 -414 3 -66 9
-124 12 -129 2 -5 16 18 29 50 13 33 38 88 56 124 34 70 40 129 20 205 -19 69
-22 135 -8 149 13 13 45 107 45 133 0 23 -17 14 -30 -17 l-13 -30 -14 27 c-8
16 -26 40 -40 55 -23 24 -24 30 -14 59 10 29 9 36 -8 53 -20 19 -20 19 -26
-10 -24 -115 -39 -121 -83 -31 -49 102 -57 95 -57 -48z"/>
<path d="M5423 4693 c-7 -2 -13 -11 -13 -19 0 -8 -6 -17 -14 -20 -8 -3 -17
-16 -20 -30 -4 -13 -11 -24 -17 -24 -6 0 -8 -4 -5 -9 3 -5 -1 -14 -9 -21 -23
-19 -18 -38 13 -54 30 -16 62 -6 62 19 0 7 3 15 8 17 9 4 52 65 52 74 0 4 7
12 16 19 15 10 13 14 -18 33 -20 12 -37 22 -39 21 -2 0 -10 -3 -16 -6z"/>
<path d="M5509 4628 c-8 -11 -19 -26 -25 -32 -6 -7 -15 -22 -18 -34 -4 -12
-12 -22 -18 -22 -6 0 -9 -3 -5 -6 3 -3 -3 -15 -14 -27 -17 -19 -17 -22 -3 -38
33 -36 94 -29 94 11 0 7 10 24 22 38 l22 27 30 -27 c26 -24 28 -30 18 -53 -9
-18 -19 -25 -41 -25 -16 0 -31 6 -34 13 -3 9 -9 8 -22 -4 -16 -16 -16 -18 2
-35 20 -19 84 -57 88 -52 1 2 19 29 40 61 31 48 36 61 24 69 -10 7 -8 8 9 3
16 -5 22 -2 22 9 0 9 6 16 13 16 11 0 -7 13 -60 41 -13 7 -23 16 -23 21 0 4
-7 8 -15 8 -8 0 -15 -5 -15 -11 0 -5 -5 -7 -11 -3 -8 5 -8 8 0 14 13 7 8 13
-40 42 -24 15 -27 15 -40 -4z"/>
<path d="M5095 4616 c-6 -7 -29 -41 -53 -74 l-42 -61 22 -12 c13 -6 33 -21 46
-32 12 -11 22 -16 22 -9 0 6 6 17 13 24 18 20 57 76 57 83 0 4 7 13 15 21 20
20 19 33 -2 41 -10 4 -24 13 -31 20 -17 17 -35 17 -47 -1z"/>
<path d="M1679 4549 c-41 -28 -81 -57 -89 -65 -9 -7 -34 -20 -56 -28 -41 -14
-150 -84 -214 -138 -19 -16 -40 -33 -47 -38 -7 -6 -19 -10 -28 -10 -23 0 -135
-81 -135 -98 0 -9 -7 -11 -20 -7 -21 7 -82 -23 -74 -37 3 -4 -2 -5 -10 -2 -28
11 -53 -12 -48 -46 2 -16 8 -33 13 -36 15 -9 10 -44 -6 -44 -19 0 -19 -10 1
-38 16 -23 48 -30 59 -12 3 5 18 7 33 4 38 -8 61 20 64 79 2 34 7 47 18 47 21
0 35 -12 43 -33 6 -16 13 -14 67 24 34 24 64 47 67 52 3 6 -10 23 -30 40 -43
34 -44 42 -13 81 18 21 29 26 45 21 11 -3 21 -13 21 -21 0 -8 8 -14 19 -14 10
0 24 -7 32 -16 8 -10 21 -13 38 -9 41 10 167 92 196 128 14 17 36 45 48 60 14
18 34 29 56 32 18 2 35 5 36 7 2 2 6 36 9 77 4 41 9 78 12 83 15 24 -42 2
-107 -43z"/>
<path d="M5176 4523 c-20 -27 -43 -57 -51 -68 -25 -32 -19 -49 26 -77 26 -17
27 -16 45 8 11 15 34 46 52 69 37 50 39 62 15 82 -47 36 -50 35 -87 -14z"/>
<path d="M5289 4488 c-8 -11 -28 -39 -45 -62 -47 -63 -48 -74 -13 -95 32 -19
32 -19 55 4 13 13 24 29 24 34 0 6 6 14 13 18 6 4 19 24 28 43 17 37 14 46
-27 68 -17 9 -23 7 -35 -10z"/>
<path d="M4941 4393 c-48 -62 -54 -74 -43 -88 14 -20 61 -45 74 -39 7 3 31 32
52 66 l40 60 -25 19 c-51 41 -52 41 -98 -18z"/>
<path d="M5373 4434 c-4 -11 -24 -42 -45 -70 -21 -28 -38 -56 -38 -63 0 -16
62 -52 79 -46 8 3 11 0 8 -8 -3 -7 17 -25 49 -44 l54 -32 47 72 c25 40 51 75
57 79 7 5 5 8 -6 8 -9 0 -18 4 -20 8 -4 9 -138 99 -161 108 -11 4 -19 0 -24
-12z"/>
<path d="M5722 4430 c-6 -11 -18 -17 -25 -15 -7 3 -19 -4 -27 -16 -8 -11 -23
-31 -33 -42 -24 -28 -57 -92 -57 -111 0 -16 27 -29 35 -17 4 8 34 16 90 25 36
6 55 18 54 35 0 10 -2 11 -6 4 -2 -7 -11 -13 -19 -13 -11 0 -13 9 -8 38 3 20
6 44 7 52 2 8 6 21 10 28 5 7 3 12 -4 12 -9 0 -9 3 0 14 7 8 8 17 3 19 -4 3
-13 -3 -20 -13z"/>
<path d="M5075 4376 c-5 -6 -23 -31 -40 -56 -16 -25 -33 -46 -37 -48 -19 -8
-5 -42 24 -60 37 -24 56 -16 84 35 10 19 26 44 36 55 24 28 23 29 -20 59 -27
19 -40 24 -47 15z"/>
<path d="M5160 4299 c-8 -12 -20 -27 -25 -33 -17 -18 -58 -87 -54 -90 10 -9
55 -30 64 -31 11 0 68 70 78 98 3 9 11 17 17 17 20 0 9 19 -24 39 -41 26 -38
26 -56 0z"/>
<path d="M4820 4219 l-41 -59 34 -35 c19 -19 37 -35 40 -35 6 0 87 119 87 129
0 4 -18 19 -39 33 l-40 26 -41 -59z"/>
<path d="M5246 4242 c-8 -15 -23 -36 -33 -47 -29 -32 -48 -74 -37 -85 5 -5 27
-13 49 -18 22 -5 39 -14 38 -20 -3 -13 59 -56 95 -67 13 -4 22 -2 22 4 0 6 18
37 40 68 44 64 47 73 25 73 -8 0 -15 3 -15 8 0 10 -58 42 -76 42 -8 0 -14 -5
-14 -11 0 -5 -5 -7 -11 -3 -8 5 -8 9 1 14 17 10 7 24 -35 49 l-35 20 -14 -27z"/>
<path d="M5542 4200 c-17 -28 -15 -31 12 -24 30 7 76 -30 76 -62 0 -26 16 -41
50 -46 29 -4 31 -24 9 -103 -18 -63 -53 -102 -76 -84 -8 7 -21 14 -29 15 -7 1
-21 9 -30 18 -8 9 -22 16 -30 16 -17 0 -19 36 -1 47 6 4 19 6 28 5 8 -2 21 9
27 23 6 14 16 25 22 25 20 0 9 18 -14 24 -33 8 -86 54 -86 74 -1 15 -3 15 -15
-2 -8 -10 -12 -23 -9 -28 4 -6 -12 -29 -33 -51 -61 -64 -61 -71 7 -117 62 -42
86 -50 76 -25 -8 21 8 19 29 -5 10 -11 15 -28 12 -39 -4 -16 16 -36 97 -99 56
-44 108 -87 115 -96 7 -9 18 -16 24 -16 7 0 7 4 -1 12 -15 15 -16 38 -2 38 6
0 10 -7 10 -15 0 -8 10 -20 23 -26 12 -7 29 -21 37 -33 14 -20 14 -20 21 4 14
50 10 59 -33 80 l-43 20 40 -2 40 -3 6 55 c7 63 -5 84 -58 107 -46 19 -42 35
7 27 22 -4 40 -4 40 -2 0 25 -28 68 -60 93 -22 17 -39 37 -40 45 0 8 -15 29
-32 47 -33 34 -32 43 6 56 5 2 1 18 -10 36 -14 24 -25 31 -44 29 -18 -2 -24
-8 -22 -21 3 -17 1 -17 -28 -2 -23 12 -35 13 -51 5 -16 -9 -24 -8 -38 4 -15
14 -18 13 -29 -4z"/>
<path d="M4947 4188 c-58 -78 -67 -93 -67 -104 0 -14 51 -54 68 -54 10 0 92
115 92 129 0 5 -42 34 -71 49 -3 1 -13 -8 -22 -20z"/>
<path d="M5133 4084 c4 -4 -7 -24 -23 -44 -17 -21 -30 -43 -30 -49 0 -6 -4
-11 -10 -11 -5 0 -10 -7 -10 -16 0 -8 19 -24 45 -35 25 -11 45 -24 45 -28 0
-8 101 -74 104 -69 1 2 17 22 34 44 32 42 40 64 22 64 -5 0 -7 7 -4 15 4 8 10
12 15 9 5 -3 7 -10 4 -15 -4 -5 -1 -9 4 -9 6 0 11 8 11 18 0 23 -90 74 -110
62 -23 -15 -34 -12 -20 5 7 9 11 17 9 18 -2 2 -17 13 -33 25 -25 19 -70 32
-53 16z"/>
<path d="M4822 4010 c-12 -16 -22 -34 -22 -39 0 -6 -6 -14 -12 -18 -24 -15
-15 -39 23 -61 l37 -22 37 51 c51 71 51 74 10 98 -46 27 -47 27 -73 -9z"/>
<path d="M1525 3989 c-39 -12 -73 -16 -97 -12 -24 3 -43 1 -53 -7 -14 -11 -12
-16 17 -40 l32 -27 -33 -51 c-37 -58 -39 -58 -114 -5 -50 35 -52 35 -105 -4
-27 -20 -30 -27 -22 -44 15 -27 3 -43 -17 -24 -23 23 -27 12 -28 -68 l0 -72
-45 -3 c-25 -2 -52 -10 -60 -17 -14 -12 -21 -9 -59 25 -46 43 -68 49 -77 25
-4 -10 -13 -13 -26 -9 -10 3 -24 1 -31 -4 -17 -14 -133 -45 -148 -40 -8 3 -2
13 16 30 l28 26 -24 12 c-13 7 -33 21 -44 31 -11 10 -43 21 -74 24 -29 3 -63
12 -75 20 -11 7 -37 16 -56 20 -19 4 -56 18 -81 32 l-46 25 -32 -32 c-22 -22
-35 -29 -44 -23 -14 11 -93 9 -128 -3 -13 -5 -33 -9 -43 -9 -16 0 -20 -8 -22
-47 -2 -26 -10 -61 -19 -77 -11 -22 -15 -60 -15 -136 l0 -105 37 25 c21 14 53
32 71 40 54 25 39 69 -20 58 -18 -3 -27 0 -32 13 -4 11 -2 20 3 22 6 2 11 13
11 24 0 14 5 18 19 13 37 -11 53 4 47 47 -3 22 -8 44 -12 49 -3 5 2 21 10 34
14 21 25 25 62 25 39 0 50 -5 82 -39 30 -31 46 -39 88 -45 28 -3 58 -4 66 -1
19 8 159 -64 165 -84 7 -24 127 -79 223 -102 47 -11 113 -32 147 -45 34 -13
74 -24 90 -24 38 -1 63 -48 54 -105 -6 -39 -49 -121 -82 -155 -9 -10 -19 -28
-22 -42 -5 -18 -16 -27 -38 -32 -45 -9 -89 -43 -89 -70 0 -46 -41 -58 -102
-32 -54 24 -98 32 -150 27 -9 -1 -8 -4 2 -11 10 -6 3 -8 -25 -4 -70 9 -118 25
-210 70 -49 24 -95 44 -101 44 -6 0 -24 11 -40 25 -16 14 -60 37 -99 52 -38
14 -89 37 -113 50 l-43 24 3 -42 3 -42 106 -38 c59 -20 115 -45 125 -54 28
-25 127 -85 140 -85 7 0 19 -6 26 -12 19 -19 79 -38 117 -38 19 0 70 -12 115
-26 120 -38 135 -42 201 -49 33 -4 72 -13 87 -21 15 -8 41 -14 59 -14 31 0 31
1 25 38 -6 42 2 58 45 85 15 8 39 37 54 62 24 42 26 50 14 72 -12 22 -10 26
16 48 15 14 32 25 36 25 7 0 20 29 25 58 1 7 -9 12 -26 12 -23 0 -28 4 -28 28
0 15 13 53 29 86 16 32 29 64 29 71 0 7 6 16 13 18 9 4 9 6 -1 6 -7 1 -20 -8
-29 -19 -10 -11 -20 -20 -23 -20 -3 0 -6 30 -7 68 0 37 -4 83 -8 102 -5 28 -2
41 15 63 26 32 81 63 133 72 30 6 37 4 37 -9 0 -9 7 -16 15 -16 21 0 85 59 85
80 0 40 41 109 78 132 63 38 125 100 110 110 -17 10 -22 10 -93 -13z"/>
<path d="M5020 3909 c0 -6 -13 -28 -30 -49 -16 -21 -30 -44 -30 -52 0 -17 44
-43 58 -34 6 3 13 0 15 -6 4 -10 6 -10 6 0 1 6 6 12 12 12 6 0 8 -8 4 -19 -8
-25 54 -75 80 -64 13 4 16 3 11 -5 -4 -7 -3 -12 3 -12 6 0 29 27 51 60 29 43
36 60 25 60 -8 0 -15 4 -15 9 0 11 -62 51 -78 51 -6 0 -19 -8 -28 -17 -19 -20
-20 -22 1 30 3 6 -9 20 -26 30 -35 19 -59 22 -59 6z"/>
<path d="M5020 3709 c0 -9 -38 -68 -51 -79 -3 -3 -8 -12 -11 -20 -6 -18 60
-70 79 -63 7 3 13 -1 13 -8 0 -14 21 7 58 58 22 33 30 59 13 48 -6 -3 -15 3
-20 14 -12 22 -81 65 -81 50z"/>
<path d="M1920 3656 c0 -19 7 -42 16 -50 14 -15 14 -23 -5 -98 -12 -45 -21
-98 -21 -117 -1 -62 -38 -252 -60 -306 -16 -40 -37 -146 -29 -151 5 -2 35 9
68 26 70 35 71 35 71 15 0 -9 9 -15 25 -15 14 0 34 -5 44 -12 16 -10 28 -5 77
27 88 58 155 116 152 132 -2 8 -7 14 -12 13 -9 -1 -28 27 -46 70 -20 47 -35
75 -50 92 -15 17 -55 95 -105 203 -92 201 -125 246 -125 171z"/>
<path d="M4807 3590 c-15 -16 -24 -30 -21 -30 4 0 -1 -9 -10 -19 -17 -19 -17
-20 6 -35 13 -9 40 -18 59 -20 18 -3 36 -5 38 -5 2 -1 -2 -7 -8 -15 -9 -10 -1
-18 36 -37 27 -13 51 -28 54 -32 6 -8 46 39 67 79 9 18 5 24 -38 52 -27 18
-52 32 -55 32 -10 0 -30 -23 -38 -42 -7 -19 -27 -25 -27 -8 0 6 3 10 8 10 4 0
12 12 19 26 13 29 7 41 -34 62 -28 16 -26 16 -56 -18z"/>
<path d="M4724 3462 c-31 -45 -44 -74 -39 -82 3 -4 17 -11 32 -15 15 -3 32
-12 36 -18 6 -9 10 -9 14 1 7 18 26 15 19 -4 -10 -25 51 -71 79 -60 8 3 15 -2
17 -11 2 -10 15 4 37 36 18 29 32 53 30 55 -2 1 -27 16 -55 33 -38 23 -55 28
-63 20 -6 -6 -14 -7 -18 -2 -5 4 -2 10 5 12 13 5 -13 29 -54 51 -19 10 -24 8
-40 -16z"/>
<path d="M4199 3399 c-19 -28 -39 -60 -46 -73 -27 -48 -79 -100 -93 -91 -32
20 -143 -3 -245 -51 -59 -27 -170 -127 -160 -144 4 -6 0 -22 -9 -35 -9 -13
-16 -31 -16 -38 0 -16 148 -110 164 -103 6 2 3 7 -7 11 -9 4 -32 22 -50 40
-44 44 -47 103 -4 96 4 0 7 7 7 16 0 15 1 15 14 -2 8 -11 19 -16 30 -12 9 4
15 3 12 -2 -3 -5 5 -8 19 -7 14 0 25 5 25 10 0 6 7 1 15 -10 8 -10 15 -14 15
-8 0 6 6 11 14 11 8 0 12 -8 9 -21 -4 -17 -3 -18 6 -6 7 10 11 11 11 3 0 -7 7
-10 15 -7 8 4 15 10 15 15 0 5 22 37 48 72 27 34 79 109 117 167 38 58 71 107
74 110 9 8 47 63 60 88 22 42 -6 22 -40 -29z"/>
<path d="M4253 3403 c-10 -16 -22 -32 -26 -38 -44 -53 -200 -280 -230 -334
-10 -19 -25 -41 -33 -48 -8 -8 -14 -19 -14 -24 0 -9 58 -49 70 -49 4 0 24 17
45 38 33 31 104 132 218 306 7 10 20 29 30 41 9 13 17 26 17 30 0 3 7 13 15
21 8 9 15 19 15 23 0 8 -74 61 -85 61 -2 0 -12 -12 -22 -27z"/>
<path d="M4357 3328 c-13 -18 -33 -46 -43 -63 -16 -26 -77 -109 -104 -142 -6
-7 -10 -15 -10 -19 0 -4 -16 -28 -35 -55 -19 -26 -46 -71 -60 -98 -15 -27 -32
-52 -38 -55 -7 -3 2 -17 23 -35 39 -34 40 -34 59 -22 10 7 11 13 1 31 -10 19
-9 21 7 18 10 -2 27 7 39 22 61 75 264 378 264 394 0 7 -18 22 -39 34 l-40 22
-24 -32z"/>
<path d="M4648 3345 c-7 -9 -19 -22 -25 -30 -7 -7 -14 -24 -15 -36 -2 -18 4
-25 27 -33 17 -6 33 -15 36 -19 3 -5 16 4 28 19 12 15 24 24 28 21 3 -4 -2
-16 -12 -27 -22 -25 -15 -42 28 -68 27 -15 38 -17 47 -9 10 9 12 8 7 -5 -10
-29 9 -20 37 16 29 39 35 72 10 62 -8 -3 -13 -2 -9 3 10 17 -63 54 -92 46 -22
-5 -25 -4 -15 8 10 12 5 19 -28 41 -35 23 -41 24 -52 11z"/>
<path d="M4453 3253 c-16 -21 -36 -50 -45 -64 -9 -14 -23 -32 -30 -40 -7 -8
-19 -25 -26 -39 -7 -14 -35 -56 -62 -95 -72 -101 -92 -140 -84 -170 4 -14 9
-24 12 -21 2 3 13 1 23 -4 19 -11 37 2 66 46 8 13 19 24 24 24 9 0 -17 -48
-31 -60 -17 -14 -17 -39 -2 -45 9 -3 17 -5 18 -3 0 2 8 -3 17 -11 9 -7 14 -17
11 -22 -3 -5 -1 -9 5 -9 12 0 37 25 44 42 2 8 8 9 13 4 5 -5 4 -11 -3 -13 -7
-3 -13 -13 -13 -23 0 -10 -4 -21 -10 -25 -14 -8 0 -35 19 -36 11 0 12 -2 3 -6
-22 -9 25 -35 49 -28 20 7 20 6 5 -24 -9 -16 -27 -42 -41 -57 -14 -15 -25 -33
-25 -39 0 -8 -12 -12 -32 -11 -40 1 -50 -27 -17 -45 19 -10 24 -9 35 7 50 72
112 128 97 87 -17 -46 -99 -173 -111 -173 -4 0 -39 20 -77 45 l-69 45 -20 -32
c-11 -18 -24 -34 -28 -36 -4 -2 5 -21 20 -42 27 -37 57 -48 66 -23 3 7 11 13
18 13 9 0 9 -3 0 -12 -17 -17 -15 -58 3 -58 8 0 15 -6 15 -12 0 -7 14 -26 30
-42 17 -16 30 -33 30 -37 0 -5 10 -13 21 -20 53 -28 199 101 263 233 20 40 43
110 52 156 18 88 13 142 -22 258 l-16 51 33 54 c19 30 48 76 66 104 37 56 40
65 17 65 -8 0 -13 4 -10 9 4 5 -14 20 -37 34 -39 21 -45 22 -54 8 -6 -9 -14
-13 -19 -8 -4 4 -3 12 4 19 8 8 8 14 -1 22 -24 23 -68 47 -76 42 -5 -3 -28
-37 -51 -76 -23 -38 -46 -70 -50 -70 -4 0 -12 -10 -18 -22 -6 -13 -11 -18 -11
-12 -1 7 26 53 59 103 l60 91 -33 20 c-17 11 -35 20 -39 20 -3 0 -19 -17 -35
-37z"/>
<path d="M3563 2933 c-7 -3 -13 -10 -13 -16 0 -7 -7 -25 -16 -42 -9 -16 -18
-55 -21 -85 l-5 -55 42 -18 c23 -10 66 -20 97 -22 30 -3 58 -7 63 -10 8 -5 86
93 79 99 -2 2 -40 28 -84 59 -44 31 -91 65 -105 76 -14 10 -31 16 -37 14z"/>
<path d="M4886 2657 c-7 -132 -10 -161 -16 -167 -3 -3 -11 -27 -18 -55 -16
-60 -54 -145 -65 -145 -5 0 -6 -4 -3 -9 3 -5 -1 -14 -9 -21 -8 -7 -15 -16 -15
-21 0 -23 -130 -151 -199 -196 -61 -39 -174 -93 -211 -99 -8 -2 -33 -8 -55
-15 -22 -6 -103 -12 -180 -14 -90 -2 -141 -7 -143 -14 -2 -6 -9 -11 -16 -11
-57 0 -269 -318 -276 -415 -8 -102 0 -151 36 -222 58 -116 233 -278 344 -318
25 -9 59 -23 75 -30 49 -22 115 -34 183 -35 74 0 162 25 162 47 0 9 6 13 15 9
8 -3 26 -1 39 3 32 13 138 113 156 148 8 15 30 44 49 63 55 58 169 236 226
354 57 117 95 212 95 234 0 8 6 28 14 45 28 64 62 227 73 345 5 68 4 73 -13
70 -14 -2 -18 2 -16 17 2 11 10 25 18 31 8 6 14 28 14 48 0 38 -31 163 -52
213 -33 77 -127 204 -179 242 l-28 21 -5 -103z"/>
<path d="M3493 2648 c8 -62 16 -97 39 -154 l21 -52 48 64 c27 35 49 69 49 77
0 13 -133 107 -152 107 -6 0 -8 -18 -5 -42z"/>
<path d="M3644 2528 c-14 -24 -37 -60 -51 -80 -25 -36 -25 -37 -7 -67 10 -17
22 -31 27 -31 4 0 6 -4 3 -9 -3 -5 1 -12 9 -15 11 -4 26 11 49 47 19 28 48 67
65 85 17 18 31 39 31 46 0 14 -71 66 -90 66 -5 0 -22 -19 -36 -42z"/>
<path d="M3766 2466 c-14 -19 -26 -39 -26 -45 0 -5 -6 -16 -12 -23 -14 -15
-30 -39 -53 -80 -12 -21 -12 -28 -3 -28 7 0 21 -14 31 -32 l18 -31 31 42 c26
35 29 45 17 53 -11 8 -10 9 3 4 10 -3 22 0 28 7 5 7 26 30 45 52 19 22 34 46
32 53 -1 7 -21 24 -43 37 l-42 25 -26 -34z"/>
<path d="M3883 2418 c-20 -29 -54 -98 -47 -98 4 0 -3 -9 -15 -19 -14 -12 -20
-25 -15 -32 4 -8 3 -9 -4 -5 -7 4 -12 1 -12 -8 0 -9 -4 -16 -10 -16 -12 0 -13
-30 -2 -47 4 -6 18 -14 32 -17 21 -5 29 0 50 35 23 39 32 50 80 106 42 49 43
60 7 87 -38 29 -50 32 -64 14z"/>
<path d="M3961 2324 c-17 -25 -31 -49 -31 -53 0 -5 -6 -14 -14 -21 -8 -6 -12
-19 -9 -27 4 -9 2 -14 -3 -11 -11 7 -35 -17 -27 -26 4 -3 -1 -12 -11 -19 -16
-12 -16 -13 3 -14 12 -1 28 -9 37 -17 20 -20 33 -20 56 1 22 19 36 10 18 -12
-13 -16 -13 -16 92 -20 15 -1 30 -3 33 -6 2 -3 46 1 97 9 87 13 158 36 158 51
0 3 -35 24 -77 46 -42 22 -100 55 -127 73 -28 17 -56 32 -62 32 -7 0 -14 4
-16 8 -3 8 -71 52 -81 52 -3 0 -19 -20 -36 -46z"/>
<path d="M6020 2311 c0 -5 -21 -35 -46 -66 -34 -42 -48 -68 -52 -99 -2 -22 -8
-45 -12 -51 -21 -28 -19 -62 5 -85 l25 -23 0 36 c0 25 7 43 20 54 11 10 20 30
20 45 0 17 5 28 14 28 7 0 26 16 41 35 26 34 26 38 15 85 -7 28 -16 50 -21 50
-5 0 -9 -4 -9 -9z"/>
<path d="M7000 2280 c8 -5 15 -13 15 -17 2 -24 51 -111 72 -127 47 -35 247
-42 260 -9 9 24 -13 38 -39 25 -36 -17 -157 -3 -188 23 -8 6 -23 15 -32 18
-10 4 -18 14 -18 23 0 18 -56 74 -74 74 -6 0 -4 -5 4 -10z"/>
<path d="M5920 1871 c-9 -17 -6 -27 11 -51 30 -40 37 -125 15 -181 -12 -29
-15 -55 -11 -81 7 -42 22 -47 65 -23 66 37 138 -10 141 -92 0 -16 3 -21 6 -13
10 26 39 47 74 55 19 3 42 9 51 11 10 3 19 -3 23 -16 7 -22 34 -27 53 -8 19
19 15 25 -20 32 -35 7 -78 37 -78 55 0 6 -4 11 -9 11 -4 0 -6 11 -3 25 3 18
-2 31 -19 45 -27 22 -47 27 -32 8 6 -7 13 -25 17 -40 6 -25 4 -28 -16 -27 -61
3 -105 41 -112 98 -2 17 -9 38 -17 47 -11 14 -11 18 4 29 10 7 17 26 17 47 0
40 -23 61 -80 72 -19 4 -43 10 -52 12 -10 3 -21 -3 -28 -15z"/>
<path d="M2456 1776 c5 -21 3 -25 -9 -21 -16 7 -57 -38 -57 -62 0 -7 12 -18
28 -23 15 -6 43 -19 63 -30 35 -19 37 -19 53 -2 22 25 20 40 -6 44 -13 2 -27
13 -33 26 -6 15 -16 21 -28 18 -9 -2 -15 0 -12 5 3 5 26 6 51 2 41 -5 46 -4
42 13 -3 18 -28 34 -76 49 -21 6 -22 4 -16 -19z"/>
<path d="M2770 1599 c0 -5 -10 -9 -21 -9 -24 0 -48 -26 -49 -52 0 -10 -7 -18
-16 -18 -8 0 -13 -4 -10 -9 4 -5 -9 -19 -28 -31 -43 -26 -90 -19 -81 11 4 11
3 18 -2 17 -4 -1 -18 3 -31 10 -12 7 -27 10 -32 7 -6 -3 -10 1 -10 11 0 11 -6
15 -20 11 -10 -3 -21 0 -24 7 -3 8 -7 8 -13 -1 -5 -7 -19 -10 -31 -6 -23 6
-30 23 -9 23 8 0 7 3 -3 10 -9 6 -17 5 -21 -1 -4 -7 -8 -5 -12 3 -7 19 -78 22
-102 4 -19 -13 -19 -15 7 -52 51 -78 119 -142 272 -257 145 -110 235 -191 347
-312 39 -43 57 -53 120 -73 41 -12 81 -22 90 -22 25 0 167 -48 234 -79 33 -16
78 -34 100 -41 22 -7 80 -30 128 -52 100 -43 160 -59 231 -60 51 0 66 10 66
49 0 36 37 110 71 142 17 17 35 31 39 31 4 0 19 9 34 21 34 27 27 36 -72 85
-42 22 -78 42 -80 47 -2 4 -9 7 -15 7 -7 0 -45 20 -86 45 -40 24 -87 47 -105
50 -38 8 -93 32 -101 45 -8 12 -35 13 -35 2 0 -5 18 -17 39 -28 43 -21 58 -55
41 -98 -8 -23 -12 -24 -42 -14 -18 6 -46 10 -63 10 -23 -1 -26 1 -15 8 13 8
12 10 -3 10 -12 0 -16 4 -11 13 4 6 4 9 -1 5 -4 -4 -13 -4 -19 1 -6 4 -32 20
-57 34 l-46 25 -2 -50 c-1 -46 0 -50 15 -37 16 13 34 19 69 22 15 2 20 -4 21
-23 1 -14 3 -29 4 -35 7 -19 -11 -55 -28 -56 -30 -2 -47 2 -64 18 -16 15 -18
15 -18 0 0 -23 0 -24 -77 17 -17 9 -36 16 -42 16 -20 0 -54 38 -48 54 4 10 -2
17 -16 22 -12 4 -25 11 -28 16 -4 6 -12 4 -20 -5 -12 -13 -19 -12 -61 10 -27
15 -48 30 -48 35 0 4 -7 8 -16 8 -10 0 -14 6 -10 15 6 18 5 18 -26 6 -18 -7
-29 -4 -47 10 -25 21 -21 25 9 9 13 -7 21 -7 25 1 4 6 17 14 29 19 18 8 17 9
-11 9 -20 1 -41 10 -57 26 l-26 25 21 21 c11 11 17 24 13 30 -3 6 3 13 15 16
16 4 18 8 8 17 -7 7 -21 16 -32 20 -16 6 -17 5 -8 -5 13 -13 1 -46 -21 -61
-17 -12 -61 -9 -74 4 -15 15 -16 64 -1 73 7 5 5 13 -6 25 -22 24 -28 95 -9
111 17 14 18 5 3 -23 -15 -28 -3 -35 18 -9 14 17 31 23 73 25 75 4 71 22 -12
67 -38 21 -68 33 -68 28z"/>
<path d="M5370 1188 c0 -9 -16 -13 -45 -13 -56 -1 -73 -15 -52 -45 8 -12 13
-30 10 -41 -7 -25 -40 -25 -48 1 -3 11 -17 23 -31 26 -13 4 -29 15 -35 26 -7
14 -14 17 -21 10 -14 -14 -2 -31 29 -43 14 -5 27 -18 30 -29 4 -14 14 -20 35
-20 24 0 28 -3 23 -19 -4 -15 0 -20 16 -23 16 -2 23 -11 26 -33 8 -56 23 -51
23 6 0 45 4 60 21 75 16 14 23 15 26 7 6 -17 40 -16 46 1 6 15 -22 46 -41 46
-17 0 -19 33 -4 58 9 14 10 22 3 22 -6 0 -11 -6 -11 -12z"/>
</g>
</svg>
